<svg xmlns="http://www.w3.org/2000/svg" xmlns:xlink="http://www.w3.org/1999/xlink"><defs><clipPath id="clip0_405_6427"><path d="M0 0h19.636v19.636H0z" transform="translate(0 .364)"/></clipPath><clipPath id="clip0_405_6428"><path d="M0 0h19.636v19.636H0z" transform="translate(0 .364)"/></clipPath></defs><symbol id="arrow" viewBox="0 0 8 29"><path stroke-linecap="square" d="M1 1l5.38 12.067.62 1.4-.62 1.4L1 28"/></symbol><symbol id="cart" viewBox="0 0 20 20"><g stroke-linecap="round" stroke-linejoin="round" stroke-width="1.276" clip-path="url(#clip0_405_6427)"><path d="M6.545 19.182a1.636 1.636 0 100-3.273 1.636 1.636 0 000 3.273zM16.364 19.182a1.636 1.636 0 100-3.273 1.636 1.636 0 000 3.273zM4.64 5.273h14.178l-1.374 6.864a1.636 1.636 0 01-1.637 1.318H7.16a1.637 1.637 0 01-1.636-1.424L4.279 2.605a1.636 1.636 0 00-1.62-1.423H.82"/></g></symbol><symbol id="icon-card" viewBox="0 0 20 20"><g stroke-linecap="round" stroke-linejoin="round" stroke-width="1.276" clip-path="url(#clip0_405_6428)"><path d="M6.545 19.182a1.636 1.636 0 100-3.273 1.636 1.636 0 000 3.273zM16.364 19.182a1.636 1.636 0 100-3.273 1.636 1.636 0 000 3.273zM4.64 5.273h14.178l-1.374 6.864a1.636 1.636 0 01-1.637 1.318H7.16a1.637 1.637 0 01-1.636-1.424L4.279 2.605a1.636 1.636 0 00-1.62-1.423H.82"/></g></symbol><symbol id="icon-inst" viewBox="0 0 18 18"><path d="M9.177 18h-.18a62.577 62.577 0 01-3.981-.11c-1.163-.07-2.224-.472-3.069-1.161-.815-.665-1.372-1.564-1.655-2.672-.246-.965-.26-1.912-.272-2.827C.011 10.572.002 9.794 0 9.002c.002-.795.011-1.574.02-2.23.013-.917.026-1.863.272-2.828.283-1.108.84-2.007 1.655-2.672C2.792.582 3.853.18 5.016.11A62.712 62.712 0 019 0a62.969 62.969 0 013.983.11c1.162.071 2.223.473 3.068 1.162.816.665 1.373 1.564 1.655 2.672.246.964.26 1.911.272 2.827.01.657.018 1.436.02 2.228v.003c-.002.792-.01 1.57-.02 2.228-.012.915-.025 1.862-.272 2.827-.282 1.108-.84 2.007-1.655 2.672-.845.69-1.906 1.09-3.068 1.162-1.214.073-2.462.11-3.807.11zm-.18-1.406a61.496 61.496 0 003.901-.107c.88-.053 1.641-.339 2.266-.848.577-.47.974-1.12 1.18-1.93.206-.803.217-1.665.229-2.499.009-.652.018-1.425.02-2.21-.002-.784-.011-1.557-.02-2.21-.012-.833-.023-1.696-.228-2.499-.207-.81-.604-1.459-1.181-1.93-.625-.508-1.387-.794-2.266-.847a61.449 61.449 0 00-3.897-.107 61.283 61.283 0 00-3.9.107c-.879.053-1.641.339-2.265.847-.577.471-.975 1.12-1.181 1.93-.205.803-.217 1.665-.229 2.5-.008.653-.018 1.426-.02 2.211.002.781.012 1.555.02 2.208.012.834.024 1.696.229 2.5.206.81.604 1.458 1.18 1.93.625.508 1.387.793 2.266.847 1.238.075 2.513.11 3.897.107zm-.033-3.2A4.4 4.4 0 014.57 9a4.4 4.4 0 014.394-4.394A4.4 4.4 0 0113.36 9a4.4 4.4 0 01-4.395 4.395zm0-7.382A2.992 2.992 0 005.976 9a2.992 2.992 0 002.988 2.989A2.992 2.992 0 0011.953 9a2.992 2.992 0 00-2.989-2.988zM13.851 3.2a1.055 1.055 0 100 2.109 1.055 1.055 0 000-2.11z"/></symbol><symbol id="icon-phone" viewBox="0 0 20 20"><path stroke-width="1.5" d="M4.648 12.965a19.158 19.158 0 006.376 4.976c.932.44 2.179.962 3.568 1.052.086.003.168.007.254.007.932 0 1.681-.32 2.291-.98.004-.005.012-.012.015-.02.217-.26.465-.496.723-.745a17.4 17.4 0 00.528-.523c.797-.828.797-1.88-.008-2.681l-2.25-2.242c-.382-.395-.838-.604-1.318-.604-.479 0-.94.209-1.332.6l-1.34 1.335c-.124-.07-.252-.134-.371-.194a4.646 4.646 0 01-.412-.223c-1.22-.772-2.329-1.78-3.389-3.074-.535-.675-.894-1.242-1.145-1.82.352-.317.681-.649 1-.973.112-.116.228-.231.344-.347.404-.403.621-.87.621-1.343 0-.474-.213-.94-.621-1.343L7.066 2.712c-.13-.13-.254-.257-.382-.388a20.496 20.496 0 00-.76-.75C5.54 1.198 5.086 1 4.606 1c-.475 0-.932.198-1.332.578l-1.4 1.395a2.862 2.862 0 00-.858 1.835c-.071.892.094 1.839.52 2.984.656 1.772 1.644 3.417 3.112 5.173z"/></symbol></svg>