<svg xmlns="http://www.w3.org/2000/svg" xmlns:xlink="http://www.w3.org/1999/xlink">

  <symbol id="icon-phone" viewBox="0 0 20 20">
    <path d="M4.64762 12.9652C6.42973 15.0874 8.57501 16.7584 11.0235 17.9407C11.9558 18.3809 13.2025 18.903 14.5915 18.9925C14.6776 18.9963 14.76 19 14.8461 19C15.7783 19 16.5271 18.6792 17.1374 18.0191C17.1411 18.0153 17.1486 18.0079 17.1524 18.0004C17.3695 17.7393 17.6166 17.5044 17.8749 17.2545C18.0509 17.0866 18.2306 16.9113 18.4028 16.7323C19.2003 15.9043 19.2003 14.8525 18.3954 14.0506L16.1452 11.809C15.7634 11.4136 15.3066 11.2047 14.8274 11.2047C14.3482 11.2047 13.8877 11.4136 13.4945 11.8052L12.1542 13.1405C12.0307 13.0696 11.9034 13.0062 11.7836 12.9465C11.6338 12.8719 11.4953 12.8011 11.3717 12.7228C10.1512 11.9507 9.043 10.9436 7.98347 9.6494C7.44808 8.9743 7.08867 8.40738 6.83782 7.82926C7.18975 7.51223 7.51922 7.18027 7.83745 6.85578C7.94977 6.74016 8.06583 6.62453 8.18189 6.50891C8.58624 6.10609 8.80339 5.63987 8.80339 5.16618C8.80339 4.6925 8.58998 4.22627 8.18189 3.82346L7.0662 2.71198C6.93516 2.58143 6.81161 2.45462 6.68432 2.32408C6.43722 2.07045 6.17889 1.80937 5.9243 1.57439C5.53868 1.19768 5.08566 1 4.60644 1C4.13096 1 3.6742 1.19768 3.27359 1.57812L1.87336 2.97306C1.36419 3.48031 1.0759 4.09573 1.016 4.80812C0.944866 5.69954 1.1096 6.64691 1.53641 7.79196C2.1916 9.56361 3.18 11.2085 4.64762 12.9652Z" stroke="#323941" stroke-width="1.5" fill="#fff"/>
  </symbol>

  <symbol id="icon-insta" viewBox="0 0 18 18">
    <path d="M9.17715 18.0004C9.11755 18.0004 9.05795 18.0004 8.99794 18.0001C7.58702 18.0035 6.28336 17.9677 5.01553 17.8905C3.85318 17.8198 2.79218 17.4181 1.94705 16.729C1.13159 16.064 0.574722 15.1649 0.291962 14.057C0.045868 13.0924 0.0328217 12.1455 0.0203247 11.2296C0.011261 10.5725 0.00192261 9.79387 0 9.00203C0.00192261 8.20689 0.011261 7.42823 0.0203247 6.77111C0.0328217 5.8554 0.045868 4.90852 0.291962 3.94378C0.574722 2.83581 1.13159 1.93672 1.94705 1.27177C2.79218 0.582652 3.85318 0.180965 5.01567 0.11024C6.28349 0.0331984 7.58743 -0.00278182 9.00137 0.000651407C10.4127 -0.00236983 11.716 0.0331984 12.9838 0.11024C14.1461 0.180965 15.2071 0.582652 16.0523 1.27177C16.8679 1.93672 17.4246 2.83581 17.7074 3.94378C17.9534 4.90838 17.9665 5.8554 17.979 6.77111C17.9881 7.42823 17.9975 8.20689 17.9993 8.99873V9.00203C17.9975 9.79387 17.9881 10.5725 17.979 11.2296C17.9665 12.1454 17.9536 13.0922 17.7074 14.057C17.4246 15.1649 16.8679 16.064 16.0523 16.729C15.2071 17.4181 14.1461 17.8198 12.9838 17.8905C11.7697 17.9644 10.5224 18.0004 9.17715 18.0004V18.0004ZM8.99794 16.5939C10.3859 16.5971 11.6603 16.5621 12.8984 16.4869C13.7773 16.4335 14.5393 16.1482 15.1636 15.6391C15.7407 15.1685 16.1381 14.5192 16.3448 13.7093C16.5497 12.9063 16.5615 12.0441 16.5729 11.2104C16.5818 10.5577 16.5911 9.78453 16.5931 9.00038C16.5911 8.21609 16.5818 7.44307 16.5729 6.79034C16.5615 5.95662 16.5497 5.09446 16.3448 4.29136C16.1381 3.4814 15.7407 2.8321 15.1636 2.36148C14.5393 1.85253 13.7773 1.5673 12.8984 1.51388C11.6603 1.43849 10.3859 1.40374 9.00124 1.40676C7.61353 1.40347 6.33897 1.43849 5.10095 1.51388C4.22205 1.5673 3.46001 1.85253 2.83571 2.36148C2.25865 2.8321 1.86122 3.4814 1.65454 4.29136C1.44965 5.09446 1.43784 5.95648 1.42644 6.79034C1.41751 7.44361 1.40817 8.21719 1.40625 9.00203C1.40817 9.78343 1.41751 10.5571 1.42644 11.2104C1.43784 12.0441 1.44965 12.9063 1.65454 13.7093C1.86122 14.5192 2.25865 15.1685 2.83571 15.6391C3.46001 16.1481 4.22205 16.4333 5.10095 16.4867C6.33897 16.5621 7.6138 16.5973 8.99794 16.5939V16.5939ZM8.96443 13.3949C6.5414 13.3949 4.5699 11.4236 4.5699 9.00038C4.5699 6.57721 6.5414 4.60585 8.96443 4.60585C11.3876 4.60585 13.359 6.57721 13.359 9.00038C13.359 11.4236 11.3876 13.3949 8.96443 13.3949V13.3949ZM8.96443 6.0121C7.31676 6.0121 5.97615 7.3527 5.97615 9.00038C5.97615 10.6481 7.31676 11.9887 8.96443 11.9887C10.6122 11.9887 11.9527 10.6481 11.9527 9.00038C11.9527 7.3527 10.6122 6.0121 8.96443 6.0121V6.0121ZM13.8512 3.1996C13.2687 3.1996 12.7965 3.67173 12.7965 4.25428C12.7965 4.83683 13.2687 5.30897 13.8512 5.30897C14.4337 5.30897 14.9058 4.83683 14.9058 4.25428C14.9058 3.67173 14.4337 3.1996 13.8512 3.1996Z"/>
  </sympol>

  <symbol id="icon-card" viewBox="0 0 24 24">
    <g id="cart" transform="translate(-148 -530)">
      <path id="Контур_33" data-name="Контур 33" d="M204.4-454.307H191.809l-.394-1.486h7.923a4.873,4.873,0,0,0,4.523-3.079l3.2-7.9H188.5l-.385-1.45a5.264,5.264,0,0,0-5.06-3.937v1.515a3.766,3.766,0,0,1,3.619,2.816l3.988,15.038H204.4Zm.427-10.951-2.35,5.81a3.385,3.385,0,0,1-3.142,2.14h-8.325l-2.108-7.95Z" transform="translate(-35.058 1002.162)" fill="#fff"/>
      <ellipse id="Эллипс_4" data-name="Эллипс 4" cx="1.493" cy="1.516" rx="1.493" ry="1.516" transform="translate(166.36 550.968)" fill="#ea5e20"/>
      <ellipse id="Эллипс_5" data-name="Эллипс 5" cx="1.493" cy="1.516" rx="1.493" ry="1.516" transform="translate(156.185 550.968)" fill="#ea5e20"/>
    </g>
  </symbol>

  <symbol id="cart" viewBox="0 0 20 20" fill="none">
      <g clip-path="url(#clip0_405_6427)">
      <path d="M6.54542 19.1818C7.44916 19.1818 8.18178 18.4492 8.18178 17.5455C8.18178 16.6417 7.44916 15.9091 6.54542 15.9091C5.64168 15.9091 4.90906 16.6417 4.90906 17.5455C4.90906 18.4492 5.64168 19.1818 6.54542 19.1818Z" stroke="#323941" stroke-width="1.27585" stroke-linecap="round" stroke-linejoin="round"/>
      <path d="M16.3637 19.1818C17.2674 19.1818 18 18.4492 18 17.5455C18 16.6417 17.2674 15.9091 16.3637 15.9091C15.4599 15.9091 14.7273 16.6417 14.7273 17.5455C14.7273 18.4492 15.4599 19.1818 16.3637 19.1818Z" stroke="#323941" stroke-width="1.27585" stroke-linecap="round" stroke-linejoin="round"/>
      <path d="M4.63915 5.27273H18.8182L17.4437 12.1373C17.3689 12.514 17.164 12.8523 16.8648 13.0932C16.5656 13.334 16.1913 13.4619 15.8073 13.4546H7.15915C6.75962 13.4579 6.37265 13.315 6.07122 13.0528C5.76978 12.7905 5.57471 12.4271 5.52278 12.0309L4.27915 2.60546C4.22757 2.21211 4.03486 1.85089 3.73686 1.58901C3.43886 1.32713 3.05586 1.18242 2.65915 1.18182H0.818237" stroke="#323941" stroke-width="1.27585" stroke-linecap="round" stroke-linejoin="round"/>
      </g>
      <defs>
      <clipPath id="clip0_405_6427">
      <rect width="19.6364" height="19.6364" fill="white" transform="translate(0 0.363647)"/>
      </clipPath>
      </defs>
  </symbol>
</svg>