<svg xmlns="http://www.w3.org/2000/svg" xmlns:xlink="http://www.w3.org/1999/xlink"><defs><clipPath id="clip0_405_6427"><path d="M0 0h19.636v19.636H0z" transform="translate(0 .364)"/></clipPath><clipPath id="clip0_392_18525"><path d="M0 0h64v64H0z"/></clipPath><clipPath id="clip0_392_18591"><path d="M0 0h55.714v55.714H0z" transform="translate(.643 .643)"/></clipPath><clipPath id="clip0_405_6428"><path d="M0 0h19.636v19.636H0z" transform="translate(0 .364)"/></clipPath><clipPath id="clip0_405_7090"><path d="M0 0h36.13v35.377H0z" transform="translate(.84 .043)"/></clipPath><clipPath id="clip0_405_7094"><path d="M0 0h24.087v35.377H0z" transform="translate(.614 .043)"/></clipPath><clipPath id="clip0_405_7103"><path d="M0 0h35.377v35.377H0z" transform="translate(.592 .043)"/></clipPath></defs><symbol id="arrow" viewBox="0 0 8 29"><path stroke-linecap="square" d="M1 1l5.38 12.067.62 1.4-.62 1.4L1 28"/></symbol><symbol id="cart" viewBox="0 0 20 20"><g stroke-linecap="round" stroke-linejoin="round" stroke-width="1.276" clip-path="url(#clip0_405_6427)"><path d="M6.545 19.182a1.636 1.636 0 100-3.273 1.636 1.636 0 000 3.273zM16.364 19.182a1.636 1.636 0 100-3.273 1.636 1.636 0 000 3.273zM4.64 5.273h14.178l-1.374 6.864a1.636 1.636 0 01-1.637 1.318H7.16a1.637 1.637 0 01-1.636-1.424L4.279 2.605a1.636 1.636 0 00-1.62-1.423H.82"/></g></symbol><symbol id="feat-1" viewBox="0 0 64 64"><g stroke-width="1.454" clip-path="url(#clip0_392_18525)"><circle cx="32" cy="32" r="14.633"/><path stroke-linecap="round" d="M41.321 9.631a24.23 24.23 0 015.472 3.175M49.136 14.865a24.233 24.233 0 016.272 23.407M19.553 52.792a24.233 24.233 0 01-11.057-14.89"/><path d="M60.073 32c0 15.504-12.569 28.073-28.073 28.073C16.495 60.073 3.926 47.504 3.926 32 3.926 16.495 16.496 3.927 32 3.927c15.504 0 28.073 12.569 28.073 28.073z"/></g></symbol><symbol id="feat-2" viewBox="0 0 65 64"><path stroke-linecap="round" stroke-linejoin="round" stroke-width="1.627" d="M44.467 40.83a7.285 7.285 0 00-2.104 2.477 7.183 7.183 0 00-.805 3.133"/><path stroke-linecap="round" stroke-linejoin="round" stroke-width="1.627" d="M35.476 54.46V57c0 .53-.213 1.04-.594 1.414-.38.375-.895.586-1.433.586h-2.027c-.538 0-1.053-.21-1.434-.586A1.987 1.987 0 0129.395 57v-2.54a4.098 4.098 0 002.027.54h2.027a4.098 4.098 0 002.027-.54v0z"/><path stroke-linecap="round" stroke-linejoin="round" stroke-width="1.627" d="M37.503 47v4c0 1.06-.427 2.078-1.187 2.828A4.082 4.082 0 0133.449 55h-2.027a4.082 4.082 0 01-2.867-1.172A3.973 3.973 0 0127.367 51v-4h10.136zM47.64 25.82a14.83 14.83 0 01-1.462 6.595 15.034 15.034 0 01-4.245 5.295 11.275 11.275 0 00-3.226 3.866 11.118 11.118 0 00-1.204 4.864V47H27.367v-.56a10.53 10.53 0 00-1.062-4.726 10.676 10.676 0 00-3.073-3.774 15.033 15.033 0 01-4.713-5.901 14.82 14.82 0 011.354-14.486 15.142 15.142 0 015.728-4.95 15.376 15.376 0 0114.733.58 15.095 15.095 0 015.31 5.387 14.846 14.846 0 011.995 7.25v0zM30.408 47V35M34.462 47V35M30.408 35l-6.081-6M34.462 35l6.082-6"/><path stroke-linecap="round" stroke-linejoin="round" stroke-width="1.627" d="M26.354 15.61A12.23 12.23 0 0132.435 14M20.272 26c0-2.692.918-5.305 2.605-7.42M32.435 8V4M19.532 13.27l-2.869-2.83M14.19 26h-4.054M50.68 26h4.054M45.338 13.27l2.869-2.83"/><path stroke-linecap="round" stroke-linejoin="round" stroke-width="1.627" d="M27.367 50h10.136"/></symbol><symbol id="feat-3" viewBox="0 0 63 49"><path stroke-linecap="round" stroke-linejoin="round" stroke-miterlimit="10" stroke-width="1.524" d="M31.5 26.24a5.04 5.04 0 100 10.08 5.04 5.04 0 005.04-5.04 5.039 5.039 0 00-5.04-5.04z"/><path stroke-linecap="round" stroke-linejoin="round" stroke-miterlimit="10" stroke-width="1.524" d="M56.648 48.086A30.127 30.127 0 0061.74 31.28a30.177 30.177 0 00-2.28-11.55 30.103 30.103 0 00-2.07-4.095C52.092 6.884 42.483 1.04 31.5 1.04c-16.713 0-30.24 13.527-30.24 30.24 0 6.22 1.875 11.996 5.086 16.798"/><path stroke-linecap="round" stroke-linejoin="round" stroke-miterlimit="10" stroke-width="1.524" d="M54.18 45.542a25.423 25.423 0 002.764-5.355 25.068 25.068 0 001.524-7.052c.04-.585.061-1.176.061-1.771m-1.948-9.744a25.116 25.116 0 011.713 6.282M50.791 12.76a25.12 25.12 0 013.74 5.33"/><path stroke-width="1.524" d="M28.59 27.157l20.543-9.929-14.039 17.633"/></symbol><symbol id="feat-4" viewBox="0 0 53 55"><path stroke-width="1.714" d="M16.989 33.814a21.373 21.373 0 017.047 15.8"/><path stroke-linecap="round" stroke-width="1.714" d="M47.682 49.728H2.457L47.682 1.627"/><path stroke-linecap="round" stroke-width="1.714" d="M31.997 22.279L47.682 6.333M25.984 28.553l3.921-3.921"/></symbol><symbol id="feat-5" viewBox="0 0 50 54"><path stroke-linecap="round" stroke-width=".941" d="M22.646 7.628h-8.169c-5.35 0-9.686 4.336-9.686 9.686v0c0 5.35 4.337 9.686 9.686 9.686h20.836c5.35 0 9.686 4.337 9.686 9.686v0c0 5.35-4.337 9.687-9.686 9.687h-9.985m-3.278 0h-6.259m10.73-38.745h6.855"/><path stroke-linecap="round" stroke-width=".941" d="M22.051 46.373h-6.259m10.73-38.745h6.855"/><circle r="6.235" stroke-width=".941" transform="matrix(-1 0 0 1 42.765 6.882)"/><circle r="6.235" stroke-width=".941" transform="matrix(-1 0 0 1 7 47.117)"/></symbol><symbol id="feat-6" viewBox="0 0 57 57"><g clip-path="url(#clip0_392_18591)"><path stroke-linecap="round" stroke-width=".832" d="M43.528 13.473A21.251 21.251 0 0128.5 49.752M28.5 7.248c3.73 0 7.395.982 10.626 2.847"/><circle cx="28.5" cy="28.5" r="24.656" stroke-width=".832"/><circle cx="28.5" cy="28.5" r="2.229"/><rect width="1.114" height="17.829" x="27.943" y="10.672" rx=".557"/><rect width="1.114" height="13.907" x="27.943" y="28.907" rx=".557" transform="rotate(-60 27.943 28.907)"/></g></symbol><symbol id="feat-7" viewBox="0 0 58 58"><path stroke-linecap="round" stroke-linejoin="round" stroke-miterlimit="10" stroke-width="1.433" d="M24.527 3.463v3.472h-4.689c-2.59 0-4.689 2.074-4.689 4.63v37.043c0 2.558 2.1 4.63 4.69 4.63h18.756c2.59 0 4.689-2.072 4.689-4.63V11.566c0-2.557-2.1-4.63-4.69-4.63h-4.688V3.462h-9.379z"/><path stroke-linejoin="round" stroke-width="1.433" d="M29.7 41.846a.716.716 0 001.365-.372l-1.05-9.528h3.746a.716.716 0 00.653-1.011l-5.68-12.617a.716.716 0 00-1.366.372l1.049 9.529h-3.745a.716.716 0 00-.654 1.01L29.7 41.846z"/><path stroke-linecap="round" stroke-width="1.433" d="M18.18 12.12V29M18.18 32.463v6.06"/></symbol><symbol id="feat-8" viewBox="0 0 34 54"><path stroke-linecap="round" stroke-linejoin="round" stroke-width="1.412" d="M32.775 37.061a15.888 15.888 0 01-31.775 0C1 28.288 16.888 1 16.888 1s15.887 27.288 15.887 36.061z"/><path stroke-linecap="round" stroke-linejoin="round" stroke-width="1.412" d="M5.263 43.56a11.128 11.128 0 01-1.934-4.684M7.9 46.178l-.159-.114"/></symbol><symbol id="icon-card" viewBox="0 0 20 20"><g stroke-linecap="round" stroke-linejoin="round" stroke-width="1.276" clip-path="url(#clip0_405_6428)"><path d="M6.545 19.182a1.636 1.636 0 100-3.273 1.636 1.636 0 000 3.273zM16.364 19.182a1.636 1.636 0 100-3.273 1.636 1.636 0 000 3.273zM4.64 5.273h14.178l-1.374 6.864a1.636 1.636 0 01-1.637 1.318H7.16a1.637 1.637 0 01-1.636-1.424L4.279 2.605a1.636 1.636 0 00-1.62-1.423H.82"/></g></symbol><symbol id="icon-inst" viewBox="0 0 18 18"><path d="M9.177 18h-.18a62.577 62.577 0 01-3.981-.11c-1.163-.07-2.224-.472-3.069-1.161-.815-.665-1.372-1.564-1.655-2.672-.246-.965-.26-1.912-.272-2.827C.011 10.572.002 9.794 0 9.002c.002-.795.011-1.574.02-2.23.013-.917.026-1.863.272-2.828.283-1.108.84-2.007 1.655-2.672C2.792.582 3.853.18 5.016.11A62.712 62.712 0 019 0a62.969 62.969 0 013.983.11c1.162.071 2.223.473 3.068 1.162.816.665 1.373 1.564 1.655 2.672.246.964.26 1.911.272 2.827.01.657.018 1.436.02 2.228v.003c-.002.792-.01 1.57-.02 2.228-.012.915-.025 1.862-.272 2.827-.282 1.108-.84 2.007-1.655 2.672-.845.69-1.906 1.09-3.068 1.162-1.214.073-2.462.11-3.807.11zm-.18-1.406a61.496 61.496 0 003.901-.107c.88-.053 1.641-.339 2.266-.848.577-.47.974-1.12 1.18-1.93.206-.803.217-1.665.229-2.499.009-.652.018-1.425.02-2.21-.002-.784-.011-1.557-.02-2.21-.012-.833-.023-1.696-.228-2.499-.207-.81-.604-1.459-1.181-1.93-.625-.508-1.387-.794-2.266-.847a61.449 61.449 0 00-3.897-.107 61.283 61.283 0 00-3.9.107c-.879.053-1.641.339-2.265.847-.577.471-.975 1.12-1.181 1.93-.205.803-.217 1.665-.229 2.5-.008.653-.018 1.426-.02 2.211.002.781.012 1.555.02 2.208.012.834.024 1.696.229 2.5.206.81.604 1.458 1.18 1.93.625.508 1.387.793 2.266.847 1.238.075 2.513.11 3.897.107zm-.033-3.2A4.4 4.4 0 014.57 9a4.4 4.4 0 014.394-4.394A4.4 4.4 0 0113.36 9a4.4 4.4 0 01-4.395 4.395zm0-7.382A2.992 2.992 0 005.976 9a2.992 2.992 0 002.988 2.989A2.992 2.992 0 0011.953 9a2.992 2.992 0 00-2.989-2.988zM13.851 3.2a1.055 1.055 0 100 2.109 1.055 1.055 0 000-2.11z"/></symbol><symbol id="icon-phone" viewBox="0 0 20 20"><path stroke-width="1.5" d="M4.648 12.965a19.158 19.158 0 006.376 4.976c.932.44 2.179.962 3.568 1.052.086.003.168.007.254.007.932 0 1.681-.32 2.291-.98.004-.005.012-.012.015-.02.217-.26.465-.496.723-.745a17.4 17.4 0 00.528-.523c.797-.828.797-1.88-.008-2.681l-2.25-2.242c-.382-.395-.838-.604-1.318-.604-.479 0-.94.209-1.332.6l-1.34 1.335c-.124-.07-.252-.134-.371-.194a4.646 4.646 0 01-.412-.223c-1.22-.772-2.329-1.78-3.389-3.074-.535-.675-.894-1.242-1.145-1.82.352-.317.681-.649 1-.973.112-.116.228-.231.344-.347.404-.403.621-.87.621-1.343 0-.474-.213-.94-.621-1.343L7.066 2.712c-.13-.13-.254-.257-.382-.388a20.496 20.496 0 00-.76-.75C5.54 1.198 5.086 1 4.606 1c-.475 0-.932.198-1.332.578l-1.4 1.395a2.862 2.862 0 00-.858 1.835c-.071.892.094 1.839.52 2.984.656 1.772 1.644 3.417 3.112 5.173z"/></symbol><symbol id="tab_1" viewBox="0 0 37 36"><g clip-path="url(#clip0_405_7090)"><path d="M34.046 25.891a.717.717 0 00-.925-.433l-7.485 2.806a.734.734 0 00-.426.938.72.72 0 00.924.433l7.485-2.805a.734.734 0 00.427-.939zM24.503 29.468a.717.717 0 00-.924-.433l-.317.119a.735.735 0 00-.426.939.72.72 0 00.924.433l.317-.12a.735.735 0 00.426-.938zM34.046 22.912a.717.717 0 00-.925-.433l-5.915 2.217a.734.734 0 00-.426.939.72.72 0 00.924.432l5.916-2.216a.734.734 0 00.426-.94zM34.046 19.965a.717.717 0 00-.925-.433l-5.915 2.217a.734.734 0 00-.426.939.72.72 0 00.924.432l5.916-2.216a.735.735 0 00.426-.94z"/><path d="M36.499 6.59L19.153.087a.71.71 0 00-.498 0L1.31 6.59a.733.733 0 00-.47.685V28.19c0 .306.187.58.47.686l17.345 6.5a.715.715 0 00.498 0l17.346-6.5a.73.73 0 00.47-.686V7.275a.73.73 0 00-.47-.686zM18.185 33.64L2.279 27.68V8.323l3.239 1.214v8.857c0 .306.188.58.47.686l7.773 2.913a.715.715 0 00.66-.086.734.734 0 00.31-.6V12.99l3.454 1.295V33.64zM13.29 12.45v7.809l-6.334-2.374v-7.808l6.334 2.373zM8.317 9.022L14.01 6.89l5.694 2.133-5.694 2.134-5.694-2.134zm10.587 3.974l-2.822-1.058 5.95-2.23a.73.73 0 00.471-.686.73.73 0 00-.47-.686L14.26 5.423a.71.71 0 00-.499 0L6.23 8.246l-2.591-.97 15.266-5.723 15.267 5.721-15.267 5.722zM35.53 27.68l-15.906 5.96V14.285L35.53 8.324V27.68z"/></g></symbol><symbol id="tab_2" viewBox="0 0 25 36"><g clip-path="url(#clip0_405_7094)"><path d="M24.038.043H1.276C.911.043.614.36.614.748v33.968c0 .389.297.705.662.705h17.308a.644.644 0 00.468-.207l5.455-5.804a.73.73 0 00.194-.498V.748c0-.389-.297-.705-.663-.705zm-4.793 32.973l-.002-3.403 3.198.003-3.196 3.4zm4.131-4.809l-4.796-.005a.644.644 0 00-.468.207.73.73 0 00-.195.499l.005 5.103H1.939V1.453h21.437v26.754z"/><path d="M7.4 25.47c-1.666 0-3.02 1.44-3.02 3.213 0 1.773 1.354 3.214 3.02 3.214 1.665 0 3.02-1.441 3.02-3.214 0-1.772-1.355-3.213-3.02-3.213zm0 5.018c-.936 0-1.697-.81-1.697-1.805 0-.995.76-1.804 1.696-1.804.936 0 1.696.81 1.696 1.804 0 .995-.76 1.805-1.696 1.805z"/><path d="M16.034 28.092h-3.642c-.366 0-.663.315-.663.705 0 .389.297.704.663.704h3.642c.366 0 .663-.316.663-.704 0-.39-.297-.705-.663-.705zM7.16 4.271H5.24c-.365 0-.662.316-.662.705 0 .39.297.705.662.705h1.92c.366 0 .663-.316.663-.705 0-.389-.297-.705-.663-.705z"/><path d="M20.34 4.271h-5.762c-.365 0-.662.316-.662.705 0 .39.296.705.662.705h5.761c.366 0 .663-.316.663-.705 0-.389-.297-.705-.663-.705zM20.34 7.302h-9.802c-.365 0-.662.316-.662.705 0 .389.297.705.662.705h9.801c.366 0 .663-.316.663-.705 0-.39-.297-.705-.663-.705z"/><path d="M20.373 12.869H4.943c-.366 0-.663.316-.663.705 0 .389.297.705.662.705h15.43c.366 0 .663-.316.663-.705 0-.39-.297-.705-.662-.705zM20.373 15.265H4.943c-.366 0-.663.316-.663.705 0 .39.297.705.662.705h15.43c.366 0 .663-.316.663-.705 0-.389-.297-.705-.662-.705zM20.373 17.873H4.943c-.366 0-.663.316-.663.705 0 .389.297.705.662.705h15.43c.366 0 .663-.316.663-.705 0-.39-.297-.705-.662-.705zM20.372 20.27h-.364c-.366 0-.662.315-.662.704 0 .39.296.705.662.705h.364c.366 0 .663-.316.663-.705 0-.39-.297-.705-.663-.705zM17.69 20.27H4.942c-.365 0-.662.315-.662.704 0 .39.297.705.662.705h12.749c.366 0 .662-.316.662-.705 0-.39-.297-.705-.663-.705z"/></g></symbol><symbol id="tab_3" viewBox="0 0 36 36"><g clip-path="url(#clip0_405_7103)"><path d="M34.863 3.264l-2.14-2.126C31.326-.248 28.974-.33 27.478.958l-3.761 3.239a.608.608 0 00-.123.144L19.933 10.4l-2.352.779a.597.597 0 00-.237.994l6.41 6.363a.605.605 0 00.999-.235l.784-2.336 6.19-3.712a.596.596 0 00.144-.122l3.183-3.664c1.291-1.482 1.205-3.816-.19-5.202zm-.721 4.42l-3.121 3.591-6.298 3.777a.6.6 0 00-.26.324L23.916 17l-1.445-1.434-2.136-2.122-1.445-1.435 1.635-.542a.604.604 0 00.327-.26l3.728-6.167 3.69-3.175c1.026-.884 2.64-.83 3.597.121l2.14 2.126c.959.952 1.018 2.554.134 3.571z"/><path d="M33.15 24.152a6.68 6.68 0 00-6.75-1.611L13.56 9.789a6.571 6.571 0 00-1.622-6.704A6.68 6.68 0 004.81 1.606a.6.6 0 00-.206.984l3.843 3.816-2.563 2.546L2.04 5.134a.607.607 0 00-.99.206 6.571 6.571 0 001.49 7.079 6.681 6.681 0 006.75 1.612l4.8 4.769-5.979 5.938-3.802 2.111a.603.603 0 00-.246.256l-1.709 3.394a.596.596 0 00.114.692l2.136 2.122a.605.605 0 00.697.112l3.417-1.697a.603.603 0 00.257-.244l2.127-3.777 5.979-5.938 5.048 5.014a6.57 6.57 0 001.624 6.704 6.671 6.671 0 004.702 1.934 6.69 6.69 0 002.425-.456.6.6 0 00.207-.983l-3.843-3.817 2.563-2.545 3.843 3.817a.607.607 0 00.99-.206 6.572 6.572 0 00-1.49-7.079zm-22.962 2.765a.59.59 0 00-.1.131l-2.076 3.689-2.862 1.421-1.52-1.51 1.431-2.842 3.714-2.062a.582.582 0 00.132-.099l6.038-5.997 1.282 1.273-6.039 5.996zm23.598 2.957l-3.552-3.527a.607.607 0 00-.854 0l-3.418 3.394a.598.598 0 000 .849l3.552 3.527a5.467 5.467 0 01-4.907-1.479 5.377 5.377 0 01-1.218-5.792.597.597 0 00-.135-.643L9.874 12.914a.606.606 0 00-.648-.134 5.468 5.468 0 01-5.832-1.21 5.378 5.378 0 01-1.49-4.873l3.552 3.527a.607.607 0 00.855 0L9.728 6.83a.597.597 0 000-.849L6.177 2.454a5.465 5.465 0 014.907 1.479 5.377 5.377 0 011.218 5.792.597.597 0 00.135.643l13.38 13.29c.17.168.424.22.648.133a5.468 5.468 0 015.832 1.21 5.382 5.382 0 011.489 4.873z"/></g></symbol><symbol id="tab_4" viewBox="0 0 36 36"><path d="M3 5h20.482a6.5 6.5 0 016.5 6.5v0a6.5 6.5 0 01-6.5 6.5H9.5A6.5 6.5 0 003 24.5v0A6.5 6.5 0 009.5 31H31"/><circle cx="4.5" cy="4.5" r="4"/><circle cx="28.5" cy="31.5" r="4"/></symbol></svg>