<svg width="58" height="58" fill="none" xmlns="http://www.w3.org/2000/svg"><path d="M24.527 3.463v3.472h-4.689c-2.59 0-4.689 2.074-4.689 4.63v37.043c0 2.558 2.1 4.63 4.69 4.63h18.756c2.59 0 4.689-2.072 4.689-4.63V11.566c0-2.557-2.1-4.63-4.69-4.63h-4.688V3.462h-9.379z" stroke="#999" stroke-width="1.433" stroke-miterlimit="10" stroke-linecap="round" stroke-linejoin="round"/><path d="M29.7 41.846a.716.716 0 001.365-.372l-1.05-9.528h3.746a.716.716 0 00.653-1.011l-5.68-12.617a.716.716 0 00-1.366.372l1.049 9.529h-3.745a.716.716 0 00-.654 1.01L29.7 41.846z" stroke="#009EFF" stroke-width="1.433" stroke-linejoin="round"/><path d="M18.18 12.12V29m0 3.463v6.06" stroke="#009EFF" stroke-width="1.433" stroke-linecap="round"/></svg>