<svg width="63" height="49" fill="none" xmlns="http://www.w3.org/2000/svg"><path d="M31.5 26.24a5.04 5.04 0 100 10.08 5.04 5.04 0 005.04-5.04 5.039 5.039 0 00-5.04-5.04z" stroke="#009EFF" stroke-width="1.524" stroke-miterlimit="10" stroke-linecap="round" stroke-linejoin="round"/><path d="M56.648 48.086A30.127 30.127 0 0061.74 31.28a30.177 30.177 0 00-2.28-11.55 30.103 30.103 0 00-2.07-4.095C52.092 6.884 42.483 1.04 31.5 1.04c-16.713 0-30.24 13.527-30.24 30.24 0 6.22 1.875 11.996 5.086 16.798" stroke="#999" stroke-width="1.524" stroke-miterlimit="10" stroke-linecap="round" stroke-linejoin="round"/><path d="M54.18 45.542a25.423 25.423 0 002.764-5.355 25.068 25.068 0 001.524-7.052c.04-.585.061-1.176.061-1.771m-1.948-9.744a25.116 25.116 0 011.713 6.282M50.791 12.76a25.12 25.12 0 013.74 5.33" stroke="#009EFF" stroke-width="1.524" stroke-miterlimit="10" stroke-linecap="round" stroke-linejoin="round"/><path d="M28.59 27.157l20.543-9.929-14.039 17.633" stroke="#009EFF" stroke-width="1.524"/></svg>