<svg width="65" height="64" fill="none" xmlns="http://www.w3.org/2000/svg"><path d="M44.467 40.83a7.285 7.285 0 00-2.104 2.477 7.183 7.183 0 00-.805 3.133" stroke="#009EFF" stroke-width="1.627" stroke-linecap="round" stroke-linejoin="round"/><path d="M35.476 54.46V57c0 .53-.213 1.04-.594 1.414a2.04 2.04 0 01-1.433.586h-2.027a2.04 2.04 0 01-1.434-.586A1.987 1.987 0 0129.395 57v-2.54a4.098 4.098 0 002.027.54h2.027a4.098 4.098 0 002.027-.54v0z" stroke="#999" stroke-width="1.627" stroke-linecap="round" stroke-linejoin="round"/><path d="M37.503 47v4c0 1.06-.427 2.078-1.187 2.828A4.082 4.082 0 0133.449 55h-2.027a4.082 4.082 0 01-2.867-1.172A3.973 3.973 0 0127.367 51v-4h10.136zM47.64 25.82a14.83 14.83 0 01-1.462 6.595 15.034 15.034 0 01-4.245 5.295 11.275 11.275 0 00-3.226 3.866 11.118 11.118 0 00-1.204 4.864V47H27.367v-.56a10.53 10.53 0 00-1.062-4.726 10.676 10.676 0 00-3.073-3.774 15.033 15.033 0 01-4.713-5.901 14.82 14.82 0 011.354-14.486 15.142 15.142 0 015.728-4.95 15.376 15.376 0 0114.733.58 15.095 15.095 0 015.31 5.387 14.846 14.846 0 011.995 7.25v0zM30.408 47V35m4.054 12V35m-4.054 0l-6.081-6m10.135 6l6.082-6" stroke="#999" stroke-width="1.627" stroke-linecap="round" stroke-linejoin="round"/><path d="M26.354 15.61A12.23 12.23 0 0132.435 14M20.272 26c0-2.692.918-5.305 2.605-7.42M32.435 8V4m-12.903 9.27l-2.869-2.83M14.19 26h-4.054m40.544 0h4.054m-9.396-12.73l2.869-2.83" stroke="#009EFF" stroke-width="1.627" stroke-linecap="round" stroke-linejoin="round"/><path d="M27.367 50h10.136" stroke="#999" stroke-width="1.627" stroke-linecap="round" stroke-linejoin="round"/></svg>