<svg width="94" height="28" fill="none" xmlns="http://www.w3.org/2000/svg"><g clip-path="url(#clip0_405_6432)" fill="#323941"><path d="M17.943 0c-1.818 0-3.307 1.481-3.307 3.289s1.49 3.255 3.307 3.255a3.252 3.252 0 003.273-3.255A3.28 3.28 0 0017.943 0zM4.413 7.291a.988.988 0 100 1.975H15.2c.369-.02 1.442.067 1.925.687.51.66.275 1.815 0 2.662l-3.368 10.734c-.496 1.594-2.052 2.595-3.548 1.94-1.234-.54-1.315-1.707-.899-2.841.054-.14.121-.24.181-.36 0 0 2.683-5.024 3.274-6.425.436-1.027-.128-1.734-1.476-1.734h-6.13a.988.988 0 100 1.975h1.743c.37-.02 1.47.026 1.892.687.791 1.227.248 1.627-.933 5.71-.073.214-.14.434-.18.66 0 0-.812 2.856 1.77 4.037 2.388 1.087 5.158-.074 5.983-2.662a5575.96 5575.96 0 013.575-11.12c.61-1.895.51-3.41-.328-4.484-1.16-1.48-3.233-1.447-3.549-1.434H4.415v-.007zm-3.42 3.262c-.55 0-.993.44-.993.988 0 .547.443 1.014.993 1.014h12.684c.55 0 .993-.467.993-1.014a.988.988 0 00-.993-.988H.993zM32.675 6.49c-1.541 0-4.285.187-4.285 1.653 0 2.134 4.617 2.153 4.617 3.373 0 .37-.385.7-1.249.7-1.209 0-1.893-.071-3.01-.26-.47-.077-.63.83-.238.928.73.188 1.873.35 3.933.35 1.54 0 4.225-.272 4.225-1.744 0-2.134-4.584-2.147-4.584-3.282 0-.37.385-.7 1.249-.7h2.916c.591 0 .591-1.019 0-1.019h-3.574zm10.928 0c-1.674 0-4.497.097-4.497 2.354v2.062c0 2.263 2.823 2.354 4.497 2.354 1.774 0 2.724-.162 3.455-.35.398-.097.232-1.012-.24-.928-1.115.189-1.793.26-3.009.26-1.13 0-1.428-.253-1.428-.928v-.784c0-.266.066-.318.359-.318h2.292c.445 0 .445-.87 0-.87H42.74c-.293 0-.36-.051-.36-.317v-.584c0-.68.3-.927 1.43-.927h2.89c.59 0 .59-1.018 0-1.018h-3.097v-.007zm10.33 0c-1.673 0-4.497.097-4.497 2.354v2.153c0 2.101 2.704 2.211 4.378 2.211 1.422 0 4.524-.071 4.524-2.036v-.642c0-.804-.538-1.018-1.607-1.018h-2.352c-.319 0-.319.869 0 .869h.717c.293 0 .326.058.326.317v.552c0 .68-.644 1.044-1.608 1.044-.963 0-1.309-.37-1.309-1.044V8.428c0-.68.505-.927 1.635-.927h2.89c.59 0 .59-1.018 0-1.018h-3.096v.006zm6.219 0c-.405 0-.399.161-.299.492L61.58 12.1c.233.63.738 1.044 1.728 1.044s1.461-.421 1.694-.985c0 0 .684-1.998.803-2.355.08-.246.28-.246.36 0 .099.305.776 2.296.776 2.296.333.662.685 1.044 1.695 1.044 1.189 0 1.707-.473 1.906-1.044.126-.356 1.043-3.411 1.608-5.175.113-.344.08-.435-.24-.435h-1.042c-.326 1.077-1.329 4.313-1.369 4.45-.073.246-.259.24-.358 0-.067-.17-1.19-3.166-1.37-3.633-.185-.467-.697-.81-1.281-.81-.525 0-1.017.279-1.19.81-.172.532-1.115 3.49-1.162 3.632-.073.247-.279.247-.359 0-.053-.149-1.076-3.418-1.402-4.449h-2.225zm18.31 0c-1.622 0-4.2-.014-4.2 1.945V12.5c0 .409.313.642 1.37.642 1.055 0 1.368-.285 1.368-.642v-1.86c0-.266.066-.318.358-.318h2.146c.292 0 .359.059.359.318v1.861c0 .357.312.642 1.368.642 1.057 0 1.369-.227 1.369-.642V8.435c0-1.959-2.518-1.946-4.139-1.946zm5.925 0c-.266 0-.379.194-.18.434.672.817 2.246 2.743 2.352 2.88.133.162.326.389.326.641v2.063c0 .357.345.642 1.402.642 1.056 0 1.428-.227 1.428-.642V10.27c0-.266.18-.408.325-.583.107-.137 1.595-1.92 2.292-2.763.2-.247.094-.435-.179-.435h-1.249l-1.727 2.212a.327.327 0 01-.505 0 381.914 381.914 0 01-1.668-2.212h-2.617zm8.989 0a.62.62 0 00-.625.609.625.625 0 001.249 0 .616.616 0 00-.624-.61zm0 .142c.252 0 .478.22.478.467 0 .246-.226.434-.478.434a.432.432 0 01-.446-.434c0-.247.193-.467.445-.467zm-.266.233c-.02 0-.027.007-.027.026v.377c0 .025.02.025.087.025.073 0 .086-.006.086-.025V6.95c0-.02.007-.026.026-.026h.087c.06 0 .086.032.086.058 0 .046-.073.059-.146.059h-.026c-.034 0-.027.097 0 .116.073.059.139.117.179.143.013.013.04 0 .06 0h.179c.02 0 .02-.013 0-.026l-.24-.175c.06 0 .24.006.24-.117 0-.084-.113-.117-.266-.117h-.325zm-14.649.493c1.096 0 1.402.286 1.402.96v.81c0 .286-.06.319-.326.319h-2.172c-.292 0-.359-.059-.359-.318v-.81c0-.675.359-.96 1.455-.96zm-46.866 8.99c-.454 0-.802.139-1.044.416-.241.277-.362.669-.362 1.175 0 .513.133.908.398 1.185.27.277.633.416 1.087.416.242 0 .445-.033.61-.098.171-.064.333-.138.486-.22.1.082.177.182.23.3a.844.844 0 01.089.398c0 .241-.136.448-.407.618-.265.166-.672.248-1.22.248-.395 0-.766-.056-1.114-.168a2.52 2.52 0 01-.91-.513 2.54 2.54 0 01-.62-.884c-.147-.36-.22-.786-.22-1.282 0-.46.07-.863.212-1.21a2.65 2.65 0 01.592-.893c.254-.242.548-.425.884-.549a3.095 3.095 0 011.079-.185c.542 0 .96.088 1.255.265.3.177.45.404.45.68a.687.687 0 01-.114.399.95.95 0 01-.265.265 2.807 2.807 0 00-.495-.257 1.565 1.565 0 00-.601-.106zm3.588-.919c.1-.059.25-.115.451-.168a2.48 2.48 0 01.619-.08c.294 0 .554.045.778.133.23.082.377.215.442.398.106.306.22.663.345 1.07a148.751 148.751 0 01.734 2.546l.309 1.113a.7.7 0 01-.319.195c-.141.053-.309.08-.504.08-.141 0-.262-.012-.362-.036a.682.682 0 01-.239-.106.592.592 0 01-.15-.186 1.953 1.953 0 01-.097-.265l-.16-.61h-1.6c-.047.177-.094.36-.14.548-.048.189-.095.372-.142.548a1.74 1.74 0 01-.265.071 1.29 1.29 0 01-.328.035c-.3 0-.524-.05-.671-.15a.513.513 0 01-.212-.433c0-.083.011-.165.035-.248l.08-.291c.04-.16.097-.357.167-.593l.248-.76c.088-.277.183-.56.283-.848a508.97 508.97 0 01.521-1.503l.177-.46zm1.06 1.14c-.082.248-.176.525-.282.831-.1.3-.191.607-.274.92h1.096a29.643 29.643 0 00-.256-.928c-.083-.307-.16-.581-.23-.823h-.053zm4.164 4.085c-.253 0-.454-.074-.6-.221-.148-.148-.222-.348-.222-.602v-4.57c.065-.012.168-.026.31-.044.14-.024.276-.036.406-.036.136 0 .254.012.354.036a.598.598 0 01.265.106c.07.053.124.127.16.22.034.095.052.219.052.372v3.492h2.025c.04.065.08.153.114.265.036.106.053.218.053.336 0 .236-.05.404-.15.504a.557.557 0 01-.398.142h-2.369zm5.257-.062a2.46 2.46 0 01-.309.053 3.138 3.138 0 01-.407.026c-.135 0-.256-.012-.362-.035a.593.593 0 01-.256-.106.478.478 0 01-.16-.221 1.08 1.08 0 01-.053-.372V15.27c.065-.012.168-.027.31-.044.141-.024.277-.036.406-.036.136 0 .254.012.354.036a.6.6 0 01.265.106.48.48 0 01.16.22c.035.095.052.219.052.372v4.668zm4.913-5.322a.95.95 0 01.106.265c.035.106.053.218.053.336 0 .23-.05.395-.15.495a.526.526 0 01-.39.141H48.34v1h1.936a.8.8 0 01.115.256c.035.106.053.218.053.336 0 .224-.05.386-.15.486a.526.526 0 01-.39.141h-1.546v1.866a2.463 2.463 0 01-.31.053 3.138 3.138 0 01-.406.026 1.72 1.72 0 01-.363-.035.592.592 0 01-.256-.106.478.478 0 01-.16-.221 1.077 1.077 0 01-.052-.372v-3.845c0-.253.074-.454.22-.601.148-.147.349-.221.602-.221h2.944zm.622 2.67c0-.46.07-.867.212-1.22a2.56 2.56 0 01.592-.884c.254-.242.548-.425.884-.549a3.22 3.22 0 011.105-.185c.395 0 .76.062 1.097.185.341.124.639.307.892.549a2.4 2.4 0 01.593.884c.147.353.22.76.22 1.22 0 .46-.07.869-.212 1.228a2.494 2.494 0 01-.592.893 2.496 2.496 0 01-.884.54 3.247 3.247 0 01-1.114.185c-.4 0-.772-.062-1.114-.186a2.536 2.536 0 01-.884-.556 2.552 2.552 0 01-.583-.893 3.24 3.24 0 01-.212-1.212zm1.591 0c0 .536.11.937.327 1.202.218.265.51.398.875.398.372 0 .666-.133.884-.398.218-.265.327-.666.327-1.203 0-.53-.109-.928-.327-1.193-.212-.265-.504-.398-.875-.398a1.1 1.1 0 00-.884.398c-.218.26-.327.657-.327 1.194zm6.428.954v1.698a2.46 2.46 0 01-.31.053 3.138 3.138 0 01-.406.026 1.72 1.72 0 01-.363-.035.593.593 0 01-.256-.106.508.508 0 01-.15-.221 1.077 1.077 0 01-.053-.372v-4.163c0-.124.032-.218.097-.283a.737.737 0 01.283-.168c.2-.07.433-.12.698-.15a6.32 6.32 0 01.849-.053c.813 0 1.426.17 1.839.512.412.342.618.805.618 1.388 0 .366-.094.678-.282.937-.19.26-.413.46-.672.601.212.29.421.56.627.814.207.253.369.483.486.69a.846.846 0 01-.848.636c-.13 0-.242-.015-.336-.044a.815.815 0 01-.248-.124 1.011 1.011 0 01-.194-.195 2.575 2.575 0 01-.168-.247l-.743-1.194h-.468zm.557-1.175c.224 0 .4-.056.53-.168.13-.118.195-.29.195-.513 0-.224-.074-.392-.221-.504-.142-.118-.369-.177-.681-.177a2.01 2.01 0 00-.389.035v1.326h.566zm8.145 2.722a.778.778 0 01-.362.186 1.91 1.91 0 01-.558.07c-.218 0-.424-.032-.618-.097-.195-.064-.354-.22-.478-.468l-.875-1.786a17.495 17.495 0 01-.239-.512c-.07-.165-.147-.354-.23-.566l-.052.008c.023.319.035.643.035.973.006.33.009.654.009.972v1.37a2.455 2.455 0 01-.3.054c-.13.017-.26.026-.39.026s-.244-.009-.345-.026a.527.527 0 01-.247-.107.514.514 0 01-.15-.212 1.048 1.048 0 01-.053-.362v-4.42a.74.74 0 01.38-.265 1.795 1.795 0 011.167.018c.2.064.36.217.477.459l.884 1.786a15.392 15.392 0 01.469 1.078l.044-.009a17.223 17.223 0 01-.044-.954 51.513 51.513 0 01-.01-.955V15.27a3.07 3.07 0 01.69-.08c.26 0 .457.047.593.142.135.088.203.277.203.566v4.543zm2.694.151a2.46 2.46 0 01-.31.053 3.138 3.138 0 01-.407.026c-.135 0-.256-.012-.362-.035a.592.592 0 01-.256-.106.478.478 0 01-.16-.221 1.077 1.077 0 01-.052-.372V15.27c.064-.012.168-.027.309-.044.141-.024.277-.036.407-.036.135 0 .253.012.353.036a.6.6 0 01.265.106.48.48 0 01.16.22c.035.095.053.219.053.372v4.668zm2.286-5.163c.1-.059.25-.115.451-.168.207-.053.413-.08.62-.08.294 0 .553.045.777.133.23.082.377.215.442.398.106.306.221.663.345 1.07a148.751 148.751 0 01.734 2.546l.309 1.113a.7.7 0 01-.318.195 1.44 1.44 0 01-.504.08c-.142 0-.263-.012-.363-.036a.683.683 0 01-.238-.106.593.593 0 01-.15-.186 1.953 1.953 0 01-.098-.265l-.159-.61h-1.6c-.047.177-.094.36-.141.548-.048.189-.095.372-.142.548a1.68 1.68 0 01-.265.071 1.288 1.288 0 01-.327.035c-.3 0-.525-.05-.672-.15a.513.513 0 01-.212-.433c0-.083.011-.165.035-.248.024-.082.05-.18.08-.291.04-.16.097-.357.168-.593l.247-.76c.089-.277.183-.56.283-.848a508.97 508.97 0 01.522-1.503l.176-.46zm1.061 1.14c-.082.248-.177.525-.283.831-.1.3-.191.607-.274.92h1.097a29.643 29.643 0 00-.257-.928 35.157 35.157 0 00-.23-.823h-.053z"/></g><defs><clipPath id="clip0_405_6432"><path fill="#fff" d="M0 0h94v27.404H0z"/></clipPath></defs></svg>