<svg width="39" height="24" fill="none" xmlns="http://www.w3.org/2000/svg"><path d="M36.282.054c1.159 0 2.108.949 2.108 2.108v18.973c0 1.16-.949 2.108-2.108 2.108H2.552a2.114 2.114 0 01-2.108-2.108V2.162c0-1.16.948-2.108 2.108-2.108h33.73z" fill="#fff"/><path d="M12.04 11.649v3.9c0 .316-.212.316-.528.21-2.003-.843-3.162-3.478-2.424-5.691.421-1.16 1.265-2.108 2.424-2.53.422-.21.527-.106.527.21v3.9zm2.107 0v-3.9c0-.317 0-.317.316-.211 2.214.843 3.373 3.478 2.53 5.692-.421 1.16-1.265 2.108-2.424 2.53-.422.21-.422.105-.422-.211v-3.9zm7.59-7.379h-8.644c4.006 0 7.168 3.268 7.168 7.379 0 4.11-3.162 7.378-7.168 7.378h8.643c4.006 0 7.168-3.268 7.168-7.378 0-4.111-3.162-7.379-7.168-7.379z" fill="#3086C8"/></svg>