<svg width="41" height="27" fill="none" xmlns="http://www.w3.org/2000/svg"><g clip-path="url(#clip0_405_6592)"><path opacity=".07" d="M37.838.959H4.108c-1.79 0-3.16 1.37-3.16 3.162v18.973c0 1.792 1.475 3.162 3.162 3.162h33.73c1.791 0 3.161-1.37 3.161-3.162V4.121C41 2.33 39.525.96 37.838.96z" fill="#000"/><path d="M37.839 2.013c1.16 0 2.108.949 2.108 2.108v18.973c0 1.16-.949 2.108-2.108 2.108H4.109a2.114 2.114 0 01-2.108-2.108V4.121c0-1.16.949-2.108 2.108-2.108h33.73z" fill="#fff"/><path d="M30.776 11.605h-.316c-.422 1.054-.738 1.581-1.054 3.162h2.002c-.316-1.58-.316-2.319-.632-3.162zm3.057 6.219H32.04c-.106 0-.106 0-.211-.106l-.21-.948-.106-.211h-2.53c-.105 0-.21 0-.21.21l-.317.95c0 .105-.105.105-.105.105h-2.214l.21-.527 3.058-7.168c0-.527.316-.738.843-.738h1.58c.106 0 .212 0 .212.211l1.475 6.852c.106.421.211.737.211 1.16.106.104.106.104.106.21zm-14.125-.316l.422-1.898c.105 0 .21.106.21.106.739.316 1.477.527 2.214.421.211 0 .527-.105.738-.21.527-.211.527-.738.106-1.16-.211-.21-.527-.316-.844-.527-.421-.21-.843-.421-1.16-.738-1.264-1.054-.842-2.53-.104-3.267.632-.422.948-.844 1.791-.844 1.265 0 2.636 0 3.268.211h.105c-.105.633-.21 1.16-.421 1.792-.527-.21-1.054-.421-1.581-.421-.317 0-.633 0-.949.105-.21 0-.316.105-.422.21a.51.51 0 000 .739l.527.421c.422.211.844.422 1.16.633.527.316 1.054.843 1.16 1.475.21.949-.106 1.792-.95 2.425-.526.421-.737.632-1.475.632-1.476 0-2.635.105-3.584-.21-.105.21-.105.21-.21.105zm-3.689.316c.106-.738.106-.738.211-1.054.527-2.32 1.054-4.743 1.476-7.062.105-.211.105-.317.316-.317h1.897a31.678 31.678 0 01-.738 3.373c-.316 1.582-.632 3.163-1.054 4.744 0 .21-.105.21-.316.21l-1.792.106zM6.217 9.602c0-.105.21-.21.316-.21h3.583c.528 0 .95.316 1.055.843l.948 4.638c0 .105 0 .105.106.21 0-.105.105-.105.105-.105l2.213-5.376c-.105-.105 0-.21.106-.21h2.213c0 .105 0 .105-.105.21l-3.268 7.695c-.105.21-.105.316-.21.421-.106.106-.316 0-.527 0H11.17c-.106 0-.211 0-.211-.21l-1.687-6.535c-.21-.211-.527-.528-.948-.633-.633-.316-1.792-.527-2.003-.527l-.105-.21z" fill="#142688"/></g><defs><clipPath id="clip0_405_6592"><path fill="#fff" transform="translate(.947 .959)" d="M0 0h40.054v25.297H0z"/></clipPath></defs></svg>