<svg width="39" height="24" fill="none" xmlns="http://www.w3.org/2000/svg"><path d="M36.56.054c1.159 0 2.107.949 2.107 2.108v18.973c0 1.16-.948 2.108-2.108 2.108H2.83a2.114 2.114 0 01-2.108-2.108V2.162c0-1.16.95-2.108 2.109-2.108h33.73z" fill="#fff"/><path d="M3.43 6.547H1.776v5.797H3.43c.875 0 1.508-.21 2.066-.664A2.9 2.9 0 006.55 9.456c-.01-1.718-1.286-2.909-3.12-2.909zm1.328 4.364c-.358.316-.811.464-1.549.464h-.306V7.538h.306c.727 0 1.17.126 1.55.464.39.348.621.885.621 1.444 0 .558-.232 1.117-.622 1.465zm2.309-4.364h1.128v5.797H7.067V6.547zm3.89 2.224c-.675-.253-.876-.421-.876-.727 0-.37.359-.643.844-.643.337 0 .621.137.906.474l.59-.77a2.549 2.549 0 00-1.707-.642C9.69 6.463 8.9 7.18 8.9 8.128c0 .801.369 1.212 1.423 1.592.443.158.664.263.78.326a.705.705 0 01.337.601c0 .475-.369.822-.875.822-.537 0-.97-.274-1.233-.769l-.727.706c.516.77 1.149 1.107 2.002 1.107 1.17 0 2.003-.78 2.003-1.908.021-.938-.369-1.36-1.655-1.834zm2.023.685c0 1.708 1.339 3.025 3.057 3.025.485 0 .906-.095 1.412-.337v-1.328c-.453.453-.854.632-1.36.632-1.138 0-1.95-.822-1.95-2.002 0-1.118.833-1.992 1.898-1.992.537 0 .948.19 1.412.653V6.78c-.495-.253-.906-.358-1.391-.358-1.697 0-3.078 1.349-3.078 3.035zm13.45.991l-1.55-3.9h-1.233l2.456 5.945h.611l2.498-5.945H27.99l-1.56 3.9zm3.299 1.897h3.204v-.98h-2.076v-1.56h2.002v-.98h-2.002V7.538h2.076v-.99H29.73v5.796zm7.684-4.079c0-1.085-.748-1.707-2.055-1.707h-1.676v5.797h1.127v-2.33h.148l1.56 2.33h1.391l-1.823-2.446c.854-.179 1.328-.758 1.328-1.644zm-2.277.96h-.327v-1.76h.348c.707 0 1.086.294 1.086.863 0 .58-.38.896-1.107.896z" fill="#231F20"/><path d="M20.917 12.555a3.09 3.09 0 100-6.179 3.09 3.09 0 000 6.18z" fill="url(#paint0_linear_5426_5883)"/><path opacity=".65" d="M20.917 12.555a3.09 3.09 0 100-6.179 3.09 3.09 0 000 6.18z" fill="url(#paint1_linear_5426_5883)"/><path d="M38.213 6.911c0-.105-.073-.157-.189-.157h-.168v.505h.126v-.2l.147.2h.148l-.169-.21c.063-.011.105-.064.105-.138zm-.21.074h-.021v-.137h.021c.063 0 .095.021.095.063 0 .053-.032.074-.095.074z" fill="#231F20"/><path d="M38.045 6.564c-.242 0-.443.2-.443.442 0 .243.2.443.443.443s.443-.2.443-.443c0-.242-.2-.442-.443-.442zm0 .811a.364.364 0 01-.358-.369c0-.2.158-.368.358-.368.19 0 .348.168.348.368 0 .2-.158.37-.348.37z" fill="#231F20"/><path d="M38.668 12.686s-10.446 7.261-29.54 10.557h27.43a2.108 2.108 0 002.108-2.091l.026-3.183-.024-5.282v-.001z" fill="#F48120"/><defs><linearGradient id="paint0_linear_5426_5883" x1="22.495" y1="11.938" x2="20.361" y2="8.596" gradientUnits="userSpaceOnUse"><stop stop-color="#F89F20"/><stop offset=".25" stop-color="#F79A20"/><stop offset=".533" stop-color="#F68D20"/><stop offset=".62" stop-color="#F58720"/><stop offset=".723" stop-color="#F48120"/><stop offset="1" stop-color="#F37521"/></linearGradient><linearGradient id="paint1_linear_5426_5883" x1="22.159" y1="11.893" x2="19.039" y2="5.794" gradientUnits="userSpaceOnUse"><stop stop-color="#F58720"/><stop offset=".359" stop-color="#E16F27"/><stop offset=".703" stop-color="#D4602C"/><stop offset=".982" stop-color="#D05B2E"/></linearGradient></defs></svg>