<svg width="18" height="18" fill="none" xmlns="http://www.w3.org/2000/svg"><path d="M9.14 17.292a8.643 8.643 0 100-17.287 8.643 8.643 0 000 17.287z" fill="#F5AC37"/><path d="M4.925 13.352v-2.927c0-.07 0-.08-.084-.08H3.69c-.062 0-.09 0-.09-.085V9.255h1.23c.07 0 .095 0 .095-.091v-.995c0-.063 0-.08-.084-.08H3.69c-.062 0-.089 0-.089-.083v-.933c0-.058 0-.074.085-.074h1.138c.08 0 .101 0 .101-.1V4.044c0-.084 0-.105.105-.105h3.971c.288.01.575.042.858.095a5.178 5.178 0 011.657.614c.34.2.653.442.932.72.209.218.398.454.566.704.167.255.305.527.413.811a.137.137 0 00.158.11h.949c.121 0 .121 0 .126.117v.868c0 .085-.031.106-.116.106h-.73c-.074 0-.095 0-.09.096.028.322.028.647 0 .97 0 .089 0 .1.1.1h.836c.037.047 0 .094 0 .142a.953.953 0 010 .185v.641c0 .09-.026.116-.105.116h-1.002a.133.133 0 00-.152.101 4.236 4.236 0 01-1.112 1.62c-.18.162-.37.315-.566.456-.212.12-.419.248-.636.349-.4.18-.819.313-1.249.397a6.486 6.486 0 01-1.24.1H4.925v-.005zm7.311-2.997a1.15 1.15 0 00-.27 0h-5.87c-.081 0-.106 0-.106.105v1.84c0 .084 0 .105.105.105h2.71c.13.01.26.001.387-.026a4.06 4.06 0 001.149-.254 2.12 2.12 0 00.387-.18h.037a3.441 3.441 0 001.476-1.488s.037-.084-.005-.105v.004zm0-3.367a.1.1 0 000-.073 2.091 2.091 0 00-.19-.334 2.716 2.716 0 00-.393-.493c-.07-.09-.151-.17-.242-.238a3.8 3.8 0 00-2.489-.905H6.079c-.08 0-.09.031-.09.1v1.88c0 .08 0 .1.1.1h6.11s.053-.01.063-.042l-.026.005zM9.271 9.255h3.219c.069 0 .1 0 .105-.091a6.106 6.106 0 000-.984c0-.064-.031-.09-.1-.09H6.09c-.08 0-.101.026-.101.1v.938c0 .121 0 .121.126.121l3.156.006z" fill="#fff"/></svg>