<svg width="18" height="18" fill="none" xmlns="http://www.w3.org/2000/svg"><path d="M11.324.638C6.897-.838 2.154 1.48.572 5.908c-1.58 4.427.844 9.17 5.27 10.751 4.428 1.582 9.17-.843 10.752-5.27 1.476-4.427-.843-9.17-5.27-10.751z" fill="#EDA024"/><path d="M5.527 4.749l.316-1.054c.632.21 1.37.421 2.003.737.21-.527.421-1.054.527-1.686l.948.316-.527 1.581.843.316.527-1.58.95.316c-.212.527-.423 1.054-.528 1.686l.422.21c.316.212.632.423.948.739.317.316.422.632.527 1.054 0 .316 0 .632-.21.948-.211.527-.527.844-1.16.95h-.21c.21.104.316.21.42.42.422.422.528.844.422 1.476 0 .106 0 .211-.105.317 0 .105 0 .105-.105.21-.106.211-.211.317-.211.527-.316.527-.843.95-1.581.95-.527 0-1.054 0-1.476-.106l-.421-.106c-.211.527-.422 1.054-.528 1.687l-.948-.316c.21-.527.421-1.054.527-1.582l-.843-.316c-.211.527-.422 1.054-.527 1.581l-.949-.316c.21-.527.422-1.054.527-1.686l-2.003-.633.633-1.16c.21.106.527.212.738.212.21.105.421 0 .527-.211l1.475-4.427v-.106c0-.316-.105-.527-.421-.527 0-.21-.211-.316-.527-.421zm1.264 6.324c.527.21.95.316 1.37.422.317.105.528.105.844.105.21 0 .316 0 .527-.105.527-.317.632-1.054.21-1.476l-.632-.527c-.316-.21-.737-.316-1.16-.422-.104 0-.315-.105-.42-.21l-.739 2.213zm1.055-3.268c.316.106.527.211.737.211.317.106.633.211.949.106.422 0 .738-.106.843-.527.106-.317.106-.633 0-.844-.105-.21-.316-.316-.527-.421-.316-.211-.632-.316-1.054-.422l-.316-.105c-.105.738-.422 1.37-.632 2.002z" fill="#fff"/></svg>