<svg width="38" height="24" fill="none" xmlns="http://www.w3.org/2000/svg"><path d="M35.892.054c1.16 0 2.108.949 2.108 2.108v18.973c0 1.16-.949 2.108-2.108 2.108H2.162a2.114 2.114 0 01-2.108-2.108V2.162c0-1.16.949-2.108 2.108-2.108h33.73z" fill="#006FCF"/><path d="M8.455 9.823l.816 1.977H7.646l.81-1.977zm16.944.082h-3.138v.872h3.088v1.306h-3.082v.972h3.138v.779l2.19-2.367-2.19-2.466-.006.904zM10.576 7.44h4.21l.936 2.04.866-2.047h10.93l1.137 1.255 1.175-1.255h5.02l-3.708 4.06 3.67 4.035h-5.094l-1.137-1.254-1.186 1.255H9.571l-.52-1.255H7.86l-.522 1.255H3.216l3.463-8.096h3.616l.281.007zm9.131 1.136h-2.36l-1.58 3.727-1.714-3.727h-2.342v5.07L9.54 8.575h-2.1l-2.512 5.81h1.64l.52-1.254h2.736l.521 1.254h2.867v-4.148l1.846 4.154h1.254l1.834-4.141v4.142h1.537l.025-5.818v.001zm9.845 2.918l2.668-2.918H30.3l-1.688 1.82-1.632-1.82h-6.212v5.816h6.124l1.7-1.832 1.633 1.832H32.2l-2.648-2.898h-.001z" fill="#fff"/></svg>