<svg width="30" height="14" fill="none" xmlns="http://www.w3.org/2000/svg"><path d="M5.933 2.54c.335-.42.562-.982.502-1.557-.49.024-1.088.323-1.435.743-.31.359-.586.945-.514 1.496.55.048 1.1-.275 1.447-.683zm.497.79c-.8-.048-1.48.453-1.861.453-.382 0-.967-.43-1.6-.418-.822.012-1.586.478-2.003 1.218-.86 1.48-.227 3.676.608 4.882.406.597.895 1.253 1.54 1.23.608-.024.846-.395 1.586-.395.74 0 .954.394 1.598.382.668-.011 1.086-.596 1.492-1.193.465-.68.656-1.337.668-1.373-.012-.012-1.289-.502-1.3-1.97-.013-1.23 1.002-1.814 1.05-1.85-.573-.847-1.468-.943-1.778-.967m7.97-1.663c1.738 0 2.948 1.197 2.948 2.941 0 1.75-1.235 2.954-2.991 2.954h-1.924v3.06h-1.39V1.666H14.4zm-1.967 4.728h1.595c1.21 0 1.899-.651 1.899-1.78 0-1.13-.689-1.775-1.893-1.775h-1.6v3.555zm5.259 2.371c0-1.148.875-1.806 2.488-1.905l1.732-.106v-.496c0-.726-.478-1.123-1.328-1.123-.702 0-1.21.36-1.316.912h-1.253c.037-1.16 1.129-2.004 2.606-2.004 1.589 0 2.625.831 2.625 2.122v4.455h-1.284V9.547h-.032c-.366.7-1.173 1.141-2.048 1.141-1.29 0-2.19-.769-2.19-1.923zm4.22-.577v-.503l-1.545.1c-.87.055-1.322.378-1.322.942 0 .547.471.9 1.21.9.943 0 1.657-.602 1.657-1.44zm2.515 4.827v-1.073c.087.012.298.025.41.025.614 0 .961-.26 1.172-.931l.124-.397-2.352-6.516h1.452l1.639 5.287h.03l1.639-5.287h1.415l-2.439 6.845c-.558 1.57-1.198 2.085-2.55 2.085-.106 0-.447-.012-.54-.038z" fill="#000"/></svg>