<svg width="18" height="18" fill="none" xmlns="http://www.w3.org/2000/svg"><path d="M8.86 17.081a8.432 8.432 0 100-16.865 8.432 8.432 0 000 16.865z" fill="#8DC451"/><path d="M11.2 8.048c.183-.365.242-.78.17-1.18a1.906 1.906 0 00-2.267-1.835l-.242-1.655a.106.106 0 00-.116-.095l-.611.095a.105.105 0 00-.074.127l.284 1.665-.759.137-.284-1.623a.105.105 0 00-.116-.095l-.57.106a.105.105 0 00-.073.116l.295 1.675-1.602.285a.105.105 0 00-.074.127l.106.642a.105.105 0 00.115.095h.095a.822.822 0 01.907.738l.611 3.384a.843.843 0 01-.537.98.106.106 0 00-.074.095v.674a.127.127 0 000 .095.095.095 0 00.084 0l1.581-.274.285 1.623a.106.106 0 00.116.085l.569-.106a.105.105 0 00.074-.126l-.232-1.581.748-.137.285 1.623a.105.105 0 00.116.084l.569-.095a.106.106 0 00.074-.126l-.285-1.623.38-.064a1.896 1.896 0 001.507-2.498A1.791 1.791 0 0011.2 8.037v.01zM7.808 6.604l1.128-.2a.885.885 0 01.305 1.728l-1.128.2-.305-1.728zm2.277 4.058l-1.508.263-.305-1.728 1.507-.264a.885.885 0 01.306 1.729z" fill="#fff"/></svg>