<svg width="40" height="26" fill="none" xmlns="http://www.w3.org/2000/svg"><path opacity=".25" d="M37.578 25.746H2.659c-1.416 0-2.567-1.135-2.567-2.53V2.98c0-1.395 1.15-2.53 2.567-2.53h34.919c1.416 0 2.567 1.135 2.567 2.53v20.238c0 1.394-1.15 2.53-2.567 2.53zM2.659 1.461c-.85 0-1.54.681-1.54 1.518v20.238c0 .837.69 1.518 1.54 1.518h34.919c.85 0 1.54-.681 1.54-1.518V2.979a1.53 1.53 0 00-1.54-1.518H2.659z" fill="#A7A8AB"/><path d="M19.974 20.732a8.083 8.083 0 100-16.167 8.083 8.083 0 000 16.167z" fill="#CBA747"/><path d="M24.625 11.599c-.31-1.848-1.791-2.791-2.54-3.034-.75-.239-5.706-.14-5.706-.14-.112.137-.044 2-.044 2l1.13-.006.021 1.432h-.974a.112.112 0 00-.079.032.111.111 0 00-.032.08v1.412c0 .062.05.112.111.112h.99c.003.762-.006 1.372-.037 1.384-.084.033-1.001-.047-1.092.015-.087.06-.04 1.164-.04 1.587-.003.422.112.405.112.405 5.254-.134 5.127.348 6.608-.54 1.48-.886 1.889-2.89 1.573-4.74zm-5.594 3.266V13.47l1.687.018a.114.114 0 00.115-.112v-1.413a.114.114 0 00-.115-.111l-1.687.003v-1.56s3.864-.427 3.864 2.47c0 2.785-3.864 2.101-3.864 2.101z" fill="#fff"/></svg>