<svg width="30" height="14" viewBox="0 0 30 14" fill="none" xmlns="http://www.w3.org/2000/svg">
<path d="M5.93295 2.5395C6.26813 2.12053 6.4954 1.55784 6.43548 0.982971C5.94512 1.00732 5.34686 1.30645 5.00022 1.7259C4.68916 2.08496 4.4139 2.67104 4.48552 3.22179C5.03603 3.26954 5.58607 2.94678 5.93295 2.5395Z" fill="black"/>
<path d="M6.42977 3.3295C5.63002 3.28175 4.95059 3.78309 4.56886 3.78309C4.18689 3.78309 3.60224 3.35337 2.96984 3.36507C2.14693 3.37701 1.38347 3.84253 0.965685 4.5826C0.106729 6.06274 0.738891 8.25907 1.57445 9.46466C1.98006 10.0615 2.46898 10.718 3.11307 10.6944C3.72184 10.6705 3.96033 10.3005 4.69992 10.3005C5.43927 10.3005 5.65413 10.6944 6.29847 10.6824C6.96644 10.6705 7.38422 10.0856 7.78982 9.48877C8.25535 8.80839 8.44562 8.15188 8.45756 8.11607C8.44562 8.10413 7.16936 7.61449 7.15742 6.14629C7.14549 4.91683 8.15962 4.33193 8.20737 4.29588C7.63465 3.44887 6.73988 3.35337 6.42953 3.3295" fill="black"/>
<path d="M14.4003 1.66577C16.1378 1.66577 17.3479 2.86349 17.3479 4.60718C17.3479 6.35708 16.113 7.56101 14.3569 7.56101H12.4332V10.6206H11.0433V1.66577H14.4003ZM12.4332 6.39433H14.0279C15.2383 6.39433 15.9268 5.74283 15.9268 4.61339C15.9268 3.48419 15.238 2.83866 14.0341 2.83866H12.4332V6.39433Z" fill="black"/>
<path d="M17.6921 8.76495C17.6921 7.61689 18.567 6.95918 20.1804 6.85987L21.9117 6.75435V6.25779C21.9117 5.53205 21.434 5.1348 20.5838 5.1348C19.8824 5.1348 19.3735 5.49457 19.2684 6.04675H18.0146C18.0521 4.88652 19.144 4.0426 20.6211 4.0426C22.2096 4.0426 23.2459 4.8741 23.2459 6.16492V10.6204H21.9616V9.54679H21.9305C21.5643 10.2479 20.7574 10.6884 19.8824 10.6884C18.5919 10.6884 17.6921 9.91922 17.6921 8.76495ZM21.9117 8.18793V7.68517L20.3666 7.78448C19.4976 7.84034 19.045 8.16287 19.045 8.72747C19.045 9.27368 19.5165 9.62748 20.2549 9.62748C21.1978 9.62748 21.9117 9.0254 21.9117 8.18793Z" fill="black"/>
<path d="M24.427 13.0155V11.9422C24.5139 11.9543 24.7247 11.9668 24.8364 11.9668C25.4506 11.9668 25.7982 11.7065 26.0093 11.0359L26.1334 10.6389L23.7814 4.12323H25.2334L26.8718 9.41018H26.9028L28.541 4.12323H29.956L27.5171 10.9677C26.9585 12.5378 26.3194 13.053 24.9667 13.053C24.8612 13.053 24.5198 13.0406 24.427 13.0155Z" fill="black"/>
</svg>
