<svg width="40" height="26" viewBox="0 0 40 26" fill="none" xmlns="http://www.w3.org/2000/svg">
<path opacity="0.25" d="M37.5779 25.7464H2.65934C1.2427 25.7464 0.0916748 24.6112 0.0916748 23.2167V2.97894C0.0916748 1.58443 1.2427 0.449219 2.65934 0.449219H37.5779C38.9945 0.449219 40.1455 1.58443 40.1455 2.97894V23.2167C40.1455 24.6112 38.9945 25.7464 37.5779 25.7464ZM2.65934 1.4611C1.80978 1.4611 1.11832 2.14202 1.11832 2.97894V23.2167C1.11832 24.0536 1.80978 24.7345 2.65934 24.7345H37.5779C38.4274 24.7345 39.1189 24.0536 39.1189 23.2167V2.97894C39.1189 2.14202 38.4274 1.4611 37.5779 1.4611H2.65934Z" fill="#A7A8AB"/>
<path d="M19.9736 20.7321C24.438 20.7321 28.0571 17.113 28.0571 12.6486C28.0571 8.18417 24.438 4.56506 19.9736 4.56506C15.5092 4.56506 11.8901 8.18417 11.8901 12.6486C11.8901 17.113 15.5092 20.7321 19.9736 20.7321Z" fill="#CBA747"/>
<path d="M24.6255 11.5988C24.3145 9.75105 22.8336 8.80768 22.0841 8.56525C21.3347 8.32598 16.3786 8.42506 16.3786 8.42506C16.2669 8.56208 16.3354 10.4256 16.3354 10.4256L17.4643 10.4193L17.4864 11.8507H16.5124C16.4977 11.8506 16.4831 11.8534 16.4695 11.8589C16.4559 11.8645 16.4435 11.8727 16.4331 11.8831C16.4227 11.8935 16.4145 11.9059 16.4089 11.9195C16.4034 11.9331 16.4006 11.9477 16.4007 11.9624V13.3749C16.4007 13.4371 16.4503 13.4866 16.5124 13.4866H17.5022C17.5054 14.2487 17.4959 14.859 17.4653 14.8706C17.381 14.9043 16.464 14.8242 16.3733 14.8864C16.2858 14.9454 16.3333 16.05 16.3333 16.4727C16.3301 16.8954 16.445 16.8775 16.445 16.8775C21.6994 16.7436 21.5719 17.2264 23.0528 16.3389C24.5338 15.4524 24.9417 13.4487 24.6265 11.5977L24.6255 11.5988ZM19.0306 14.8653V13.4687L20.7181 13.4866C20.7481 13.4869 20.777 13.4753 20.7985 13.4544C20.8201 13.4335 20.8324 13.4049 20.833 13.3749V11.9624C20.8324 11.9324 20.8201 11.9039 20.7985 11.8829C20.777 11.862 20.7481 11.8504 20.7181 11.8507L19.0306 11.8539V10.2949C19.0306 10.2949 22.8947 9.867 22.8947 12.7646C22.8947 15.5494 19.0306 14.8653 19.0306 14.8653Z" fill="white"/>
</svg>
