<svg width="39" height="24" viewBox="0 0 39 24" fill="none" xmlns="http://www.w3.org/2000/svg">
<path d="M36.2815 0.0540771C37.441 0.0540771 38.3896 1.00272 38.3896 2.16218V21.1351C38.3896 22.2945 37.441 23.2432 36.2815 23.2432H2.55195C1.39249 23.2432 0.443848 22.2945 0.443848 21.1351V2.16218C0.443848 1.00272 1.39249 0.0540771 2.55195 0.0540771H36.2815Z" fill="white"/>
<path d="M12.0391 11.6487V15.5487C12.0391 15.8649 11.8283 15.8649 11.5121 15.7595C9.50941 14.9162 8.34996 12.2811 9.08779 10.0676C9.50941 8.90814 10.3527 7.9595 11.5121 7.53788C11.9337 7.32707 12.0391 7.43247 12.0391 7.74869V11.6487ZM14.1472 11.6487V7.74869C14.1472 7.43247 14.1472 7.43247 14.4634 7.53788C16.6769 8.38112 17.8364 11.0162 16.9932 13.2297C16.5715 14.3892 15.7283 15.3378 14.5688 15.7595C14.1472 15.9703 14.1472 15.8649 14.1472 15.5487V11.6487ZM21.7364 4.27032H13.0932C17.0986 4.27032 20.2607 7.53788 20.2607 11.6487C20.2607 15.7595 17.0986 19.027 13.0932 19.027H21.7364C25.7418 19.027 28.9039 15.7595 28.9039 11.6487C28.9039 7.53788 25.7418 4.27032 21.7364 4.27032Z" fill="#3086C8"/>
</svg>
