<svg width="18" height="18" viewBox="0 0 18 18" fill="none" xmlns="http://www.w3.org/2000/svg">
<path d="M11.3237 0.637836C6.89669 -0.837833 2.15347 1.48107 0.572392 5.90808C-1.00868 10.3351 1.41563 15.0783 5.84264 16.6594C10.2696 18.2405 15.0129 15.8161 16.5939 11.3891C18.0696 6.96213 15.7507 2.21891 11.3237 0.637836Z" fill="#EDA024"/>
<path d="M5.52661 4.74867L5.84282 3.69462C6.47525 3.90543 7.21309 4.11624 7.84552 4.43245C8.05632 3.90543 8.26713 3.3784 8.37254 2.74597L9.32119 3.06219L8.79416 4.64326L9.6374 4.95947L10.1644 3.3784L11.1131 3.69462C10.9023 4.22164 10.6914 4.74866 10.586 5.38109L11.0077 5.5919C11.3239 5.80271 11.6401 6.01352 11.9563 6.32974C12.2725 6.64595 12.3779 6.96217 12.4833 7.38379C12.4833 7.7 12.4833 8.01622 12.2725 8.33243C12.0617 8.85946 11.7455 9.17567 11.1131 9.28108H10.9023C11.1131 9.38648 11.2185 9.49189 11.3239 9.7027C11.7455 10.1243 11.8509 10.5459 11.7455 11.1784C11.7455 11.2838 11.7455 11.3892 11.6401 11.4946C11.6401 11.6 11.6401 11.6 11.5347 11.7054C11.4293 11.9162 11.3239 12.0216 11.3239 12.2324C11.0077 12.7594 10.4806 13.1811 9.7428 13.1811C9.21578 13.1811 8.68876 13.1811 8.26714 13.0757L7.84552 12.9702C7.63471 13.4973 7.4239 14.0243 7.31849 14.6567L6.36985 14.3405C6.58066 13.8135 6.79147 13.2865 6.89687 12.7594L6.05363 12.4432C5.84282 12.9702 5.63201 13.4973 5.52661 14.0243L4.57796 13.7081C4.78877 13.1811 4.99958 12.654 5.10499 12.0216L3.10229 11.3892L3.73472 10.2297C3.94553 10.3351 4.26175 10.4405 4.47256 10.4405C4.68337 10.5459 4.89418 10.4405 4.99958 10.2297L6.47525 5.80271V5.69731C6.47525 5.38109 6.36985 5.17028 6.05363 5.17028C6.05363 4.95947 5.84282 4.85407 5.52661 4.74867ZM6.79147 11.073C7.31849 11.2838 7.74011 11.3892 8.16173 11.4946C8.47795 11.6 8.68875 11.6 9.00497 11.6C9.21578 11.6 9.32118 11.6 9.53199 11.4946C10.059 11.1784 10.1644 10.4405 9.7428 10.0189L9.11037 9.49189C8.79416 9.28108 8.37254 9.17567 7.95092 9.07027C7.84552 9.07027 7.63471 8.96486 7.5293 8.85946L6.79147 11.073ZM7.84552 7.80541C8.16173 7.91081 8.37254 8.01622 8.58335 8.01622C8.89956 8.12162 9.21578 8.22703 9.53199 8.12162C9.95361 8.12162 10.2698 8.01622 10.3752 7.5946C10.4806 7.27838 10.4806 6.96217 10.3752 6.75136C10.2698 6.54055 10.059 6.43514 9.84821 6.32974C9.532 6.11893 9.21578 6.01352 8.79416 5.90812L8.47794 5.80271C8.37254 6.54055 8.05632 7.17298 7.84552 7.80541Z" fill="white"/>
</svg>
