<svg width="39" height="24" viewBox="0 0 39 24" fill="none" xmlns="http://www.w3.org/2000/svg">
<path d="M36.5591 0.0540771C37.7186 0.0540771 38.6672 1.00272 38.6672 2.16218V21.1351C38.6672 22.2945 37.7186 23.2432 36.5591 23.2432H2.82953C1.67008 23.2432 0.721436 22.2945 0.721436 21.1351V2.16218C0.721436 1.00272 1.67008 0.0540771 2.82953 0.0540771H36.5591Z" fill="white"/>
<path d="M3.43037 6.54708H1.77551V12.3443H3.43037C4.30523 12.3443 4.93766 12.1335 5.49631 11.6803C6.16036 11.1322 6.55036 10.31 6.55036 9.45625C6.53981 7.73815 5.26442 6.54708 3.43037 6.54708ZM4.75847 10.9108C4.40009 11.2271 3.94685 11.3746 3.20902 11.3746H2.90335V7.53789H3.20902C3.93631 7.53789 4.37901 7.66437 4.75847 8.00167C5.14847 8.3495 5.38036 8.88707 5.38036 9.44571C5.38036 10.0044 5.14847 10.563 4.75847 10.9108ZM7.06684 6.54708H8.19467V12.3443H7.06684V6.54708ZM10.9563 8.77112C10.2817 8.51815 10.0814 8.3495 10.0814 8.04383C10.0814 7.67491 10.4398 7.40086 10.9247 7.40086C11.262 7.40086 11.5465 7.53789 11.8311 7.87518L12.4214 7.10573C11.9365 6.68411 11.3568 6.46276 10.7138 6.46276C9.69142 6.46276 8.90089 7.17951 8.90089 8.12815C8.90089 8.92923 9.2698 9.34031 10.3239 9.71977C10.7666 9.87787 10.9879 9.98328 11.1038 10.0465C11.3252 10.1941 11.4411 10.4049 11.4411 10.6473C11.4411 11.1217 11.0722 11.4695 10.5663 11.4695C10.0287 11.4695 9.59656 11.1954 9.33305 10.7L8.60575 11.4062C9.12223 12.1757 9.75466 12.513 10.6084 12.513C11.7784 12.513 12.6111 11.733 12.6111 10.6052C12.6322 9.66706 12.2422 9.24545 10.9563 8.77112ZM12.9801 9.45625C12.9801 11.1638 14.3187 12.4814 16.0368 12.4814C16.5217 12.4814 16.9433 12.3865 17.4492 12.1441V10.816C16.996 11.2692 16.5954 11.4484 16.0895 11.4484C14.9511 11.4484 14.1395 10.6262 14.1395 9.44571C14.1395 8.32842 14.9722 7.45356 16.0368 7.45356C16.5744 7.45356 16.9854 7.64329 17.4492 8.10707V6.77897C16.9538 6.526 16.5427 6.42059 16.0579 6.42059C14.3609 6.42059 12.9801 7.76978 12.9801 9.45625ZM26.4297 10.4471L24.8803 6.54708H23.647L26.103 12.4919H26.7143L29.2124 6.54708H27.9897L26.4297 10.4471ZM29.7289 12.3443H32.9332V11.3641H30.8567V9.80409H32.8594V8.82383H30.8567V7.53789H32.9332V6.54708H29.7289V12.3443ZM37.4129 8.26518C37.4129 7.17951 36.6645 6.55762 35.3575 6.55762H33.6816V12.3549H34.8094V10.0254H34.957L36.517 12.3549H37.9083L36.0848 9.9095C36.9386 9.73031 37.4129 9.15058 37.4129 8.26518ZM35.1362 9.22436H34.8094V7.4641H35.1572C35.8635 7.4641 36.2429 7.75924 36.2429 8.32842C36.2429 8.90815 35.8635 9.22436 35.1362 9.22436Z" fill="#231F20"/>
<path d="M20.9174 12.5551C21.7368 12.5551 22.5226 12.2296 23.102 11.6502C23.6813 11.0709 24.0068 10.2851 24.0068 9.4657C24.0068 8.64633 23.6813 7.86053 23.102 7.28115C22.5226 6.70177 21.7368 6.37628 20.9174 6.37628C20.0981 6.37628 19.3122 6.70177 18.7329 7.28115C18.1535 7.86053 17.828 8.64633 17.828 9.4657C17.828 10.2851 18.1535 11.0709 18.7329 11.6502C19.3122 12.2296 20.0981 12.5551 20.9174 12.5551Z" fill="url(#paint0_linear_5426_5883)"/>
<path opacity="0.65" d="M20.9174 12.5551C21.7368 12.5551 22.5226 12.2296 23.102 11.6502C23.6813 11.0709 24.0068 10.2851 24.0068 9.4657C24.0068 8.64633 23.6813 7.86053 23.102 7.28115C22.5226 6.70177 21.7368 6.37628 20.9174 6.37628C20.0981 6.37628 19.3122 6.70177 18.7329 7.28115C18.1535 7.86053 17.828 8.64633 17.828 9.4657C17.828 10.2851 18.1535 11.0709 18.7329 11.6502C19.3122 12.2296 20.0981 12.5551 20.9174 12.5551Z" fill="url(#paint1_linear_5426_5883)"/>
<path d="M38.2134 6.91145C38.2134 6.80626 38.1397 6.75366 38.024 6.75366H37.8557V7.25857H37.9819V7.05871L38.1292 7.25857H38.2765L38.1082 7.04819C38.1713 7.03767 38.2134 6.98508 38.2134 6.91145ZM38.003 6.98508H37.9819V6.84833H38.003C38.0661 6.84833 38.0976 6.86937 38.0976 6.91145C38.0976 6.96404 38.0661 6.98508 38.003 6.98508Z" fill="#231F20"/>
<path d="M38.0452 6.56378C37.8028 6.56378 37.6025 6.76405 37.6025 7.00648C37.6025 7.24891 37.8028 7.44918 38.0452 7.44918C38.2877 7.44918 38.4879 7.24891 38.4879 7.00648C38.4879 6.76405 38.2877 6.56378 38.0452 6.56378ZM38.0452 7.3754C37.8555 7.3754 37.6869 7.21729 37.6869 7.00648C37.6869 6.80621 37.845 6.63756 38.0452 6.63756C38.235 6.63756 38.3931 6.80621 38.3931 7.00648C38.3931 7.20675 38.235 7.3754 38.0452 7.3754Z" fill="#231F20"/>
<path d="M38.6676 12.6858C38.6676 12.6858 28.222 19.9471 9.12891 23.2431H36.5584C37.1146 23.2432 37.6483 23.0234 38.0431 22.6317C38.438 22.24 38.6621 21.7081 38.6665 21.1519L38.6918 17.9687L38.6676 12.6868V12.6858Z" fill="#F48120"/>
<defs>
<linearGradient id="paint0_linear_5426_5883" x1="22.4953" y1="11.9385" x2="20.3609" y2="8.59611" gradientUnits="userSpaceOnUse">
<stop stop-color="#F89F20"/>
<stop offset="0.25" stop-color="#F79A20"/>
<stop offset="0.533" stop-color="#F68D20"/>
<stop offset="0.62" stop-color="#F58720"/>
<stop offset="0.723" stop-color="#F48120"/>
<stop offset="1" stop-color="#F37521"/>
</linearGradient>
<linearGradient id="paint1_linear_5426_5883" x1="22.1591" y1="11.8932" x2="19.0391" y2="5.79445" gradientUnits="userSpaceOnUse">
<stop stop-color="#F58720"/>
<stop offset="0.359" stop-color="#E16F27"/>
<stop offset="0.703" stop-color="#D4602C"/>
<stop offset="0.982" stop-color="#D05B2E"/>
</linearGradient>
</defs>
</svg>
