<svg width="18" height="18" viewBox="0 0 18 18" fill="none" xmlns="http://www.w3.org/2000/svg">
<path d="M8.86062 17.0811C13.5177 17.0811 17.293 13.3058 17.293 8.6487C17.293 3.99162 13.5177 0.216309 8.86062 0.216309C4.20353 0.216309 0.428223 3.99162 0.428223 8.6487C0.428223 13.3058 4.20353 17.0811 8.86062 17.0811Z" fill="#8DC451"/>
<path d="M11.2008 8.04778C11.3832 7.68285 11.4423 7.26864 11.3694 6.86724C11.3637 6.58971 11.2974 6.31678 11.1752 6.0675C11.0531 5.81822 10.878 5.59861 10.6622 5.42397C10.4465 5.24934 10.1952 5.1239 9.9259 5.05641C9.65663 4.98891 9.37588 4.98099 9.10324 5.0332L8.86081 3.37834C8.85949 3.36447 8.85544 3.351 8.84889 3.33871C8.84233 3.32642 8.83341 3.31555 8.82262 3.30672C8.81184 3.2979 8.79942 3.29131 8.78607 3.28732C8.77273 3.28332 8.75872 3.28202 8.74486 3.28347L8.13352 3.37834C8.10722 3.38575 8.08484 3.40308 8.07108 3.42668C8.05731 3.45027 8.05324 3.47829 8.05973 3.50483L8.34433 5.17022L7.58541 5.30725L7.30082 3.68401C7.2995 3.67015 7.29545 3.65668 7.28889 3.64438C7.28234 3.63209 7.27341 3.62122 7.26263 3.6124C7.25185 3.60358 7.23943 3.59698 7.22608 3.59299C7.21273 3.589 7.19873 3.58769 7.18487 3.58915L6.61569 3.69455C6.59155 3.70186 6.57084 3.71758 6.5573 3.73885C6.54376 3.76012 6.5383 3.78554 6.5419 3.8105L6.83704 5.48644L5.23488 5.77103C5.20859 5.77844 5.1862 5.79577 5.17244 5.81937C5.15868 5.84296 5.15461 5.87098 5.1611 5.89752L5.2665 6.54049C5.26782 6.55435 5.27187 6.56782 5.27843 6.58012C5.28498 6.59241 5.29391 6.60328 5.30469 6.6121C5.31547 6.62092 5.32789 6.62752 5.34124 6.63151C5.35459 6.6355 5.36859 6.63681 5.38245 6.63535H5.47731C5.58538 6.62369 5.69469 6.63358 5.79891 6.66444C5.90313 6.6953 6.0002 6.74652 6.0845 6.81513C6.1688 6.88375 6.23866 6.9684 6.29003 7.06419C6.3414 7.15998 6.37327 7.265 6.38379 7.37319L6.99514 10.7567C7.04071 10.9575 7.0112 11.1681 6.91217 11.3487C6.81314 11.5293 6.65144 11.6674 6.45758 11.7369C6.43708 11.7434 6.41903 11.7559 6.40584 11.7728C6.39266 11.7898 6.38496 11.8104 6.38379 11.8318V12.5064C6.37149 12.5368 6.37149 12.5708 6.38379 12.6013C6.3969 12.6078 6.41133 12.6112 6.42596 12.6112C6.44059 12.6112 6.45501 12.6078 6.46812 12.6013L8.04919 12.3272L8.33379 13.9505C8.33892 13.9765 8.35371 13.9997 8.37522 14.0154C8.39672 14.031 8.42333 14.0379 8.44973 14.0348L9.01892 13.9294C9.04521 13.922 9.0676 13.9046 9.08136 13.881C9.09512 13.8574 9.09919 13.8294 9.0927 13.8029L8.86081 12.2218L9.60918 12.0848L9.89378 13.708C9.89891 13.7341 9.91371 13.7573 9.93521 13.7729C9.95671 13.7886 9.98333 13.7955 10.0097 13.7923L10.5789 13.6975C10.6052 13.6901 10.6276 13.6727 10.6414 13.6491C10.6551 13.6255 10.6592 13.5975 10.6527 13.571L10.3681 11.9478L10.7476 11.8845C11.0229 11.8427 11.2856 11.7408 11.5171 11.586C11.7486 11.4312 11.9432 11.2274 12.087 10.9889C12.2309 10.7505 12.3205 10.4833 12.3495 10.2064C12.3785 9.92942 12.3462 9.64948 12.2548 9.38642C12.2057 9.09144 12.0835 8.81345 11.8994 8.5778C11.7153 8.34214 11.4751 8.15631 11.2008 8.03724V8.04778ZM7.80676 6.60373L8.93459 6.40346C9.14907 6.39417 9.35962 6.46312 9.52705 6.59748C9.69448 6.73184 9.8074 6.92246 9.84478 7.13386C9.88216 7.34526 9.84146 7.56304 9.73026 7.74667C9.61906 7.9303 9.44493 8.06727 9.24027 8.1321L8.11244 8.33237L7.80676 6.60373ZM10.0835 10.6618L8.57622 10.9253L8.27054 9.19669L9.77783 8.93318C9.99231 8.92389 10.2029 8.99284 10.3703 9.1272C10.5377 9.26156 10.6506 9.45218 10.688 9.66358C10.7254 9.87498 10.6847 10.0928 10.5735 10.2764C10.4623 10.46 10.2882 10.597 10.0835 10.6618Z" fill="white"/>
</svg>
