<svg width="18" height="18" viewBox="0 0 18 18" fill="none" xmlns="http://www.w3.org/2000/svg">
<path d="M9.13917 17.2919C13.9127 17.2919 17.7824 13.4222 17.7824 8.64869C17.7824 3.87519 13.9127 0.00549316 9.13917 0.00549316C4.36566 0.00549316 0.495972 3.87519 0.495972 8.64869C0.495972 13.4222 4.36566 17.2919 9.13917 17.2919Z" fill="#F5AC37"/>
<path d="M4.92508 13.3517V13.3201V12.0869V10.4246C4.92508 10.3551 4.92508 10.3445 4.84076 10.3445H3.69184C3.6286 10.3445 3.6012 10.3445 3.6012 10.2602V9.25465H4.82916C4.89873 9.25465 4.92403 9.25466 4.92403 9.16401V8.16898C4.92403 8.10574 4.92403 8.08993 4.8397 8.08993H3.69079C3.62755 8.08993 3.6012 8.08993 3.6012 8.00561V7.07277C3.6012 7.0148 3.6012 6.99899 3.68552 6.99899H4.82389C4.904 6.99899 4.92508 6.99899 4.92508 6.89886V4.04449C4.92508 3.96017 4.92508 3.93909 5.03049 3.93909H9.00109C9.28902 3.94973 9.57579 3.98143 9.85909 4.03395C10.4425 4.14232 11.003 4.35018 11.516 4.64846C11.8555 4.84853 12.1686 5.09039 12.4478 5.36838C12.6567 5.58607 12.8461 5.82167 13.0139 6.07248C13.1808 6.32678 13.3193 6.59859 13.427 6.88304C13.4335 6.91862 13.4537 6.95021 13.4833 6.97094C13.5129 6.99167 13.5495 6.99986 13.5851 6.99372H14.5338C14.655 6.99372 14.655 6.99372 14.6603 7.10967V7.9782C14.6603 8.06253 14.6287 8.08361 14.5443 8.08361H13.8139C13.7401 8.08361 13.719 8.08361 13.7232 8.17953C13.7524 8.50211 13.7524 8.82667 13.7232 9.14925C13.7232 9.23884 13.7232 9.24938 13.8244 9.24938H14.6603C14.6972 9.29682 14.6603 9.34425 14.6603 9.39168C14.6657 9.4534 14.6657 9.51547 14.6603 9.57719V10.2181C14.6603 10.3077 14.6339 10.334 14.5549 10.334H13.5535C13.5199 10.328 13.4853 10.3352 13.4569 10.354C13.4284 10.3728 13.4083 10.4019 13.4007 10.4352C13.1622 11.0549 12.7812 11.6099 12.2887 12.0553C12.1087 12.2175 11.9197 12.3696 11.7226 12.5106C11.5108 12.6318 11.3042 12.7594 11.0871 12.8595C10.6873 13.0394 10.2682 13.1727 9.838 13.2569C9.42898 13.3299 9.01388 13.3634 8.59844 13.357H4.92508V13.3517ZM12.236 10.3551C12.1463 10.3445 12.0558 10.3445 11.9661 10.3551H6.09508C6.01497 10.3551 5.98967 10.3551 5.98967 10.4605V12.2987C5.98967 12.3831 5.98967 12.4042 6.09508 12.4042H8.80504C8.93458 12.4139 9.06485 12.405 9.19187 12.3778C9.58515 12.3494 9.97218 12.2638 10.3408 12.1238C10.4754 12.0772 10.605 12.0172 10.7276 11.9446H10.7645C11.3996 11.6141 11.9158 11.0939 12.2412 10.4563C12.2412 10.4563 12.2781 10.3719 12.236 10.3509V10.3551ZM12.236 6.98845C12.2454 6.96475 12.2454 6.93836 12.236 6.91467C12.1831 6.79769 12.1196 6.68584 12.0462 6.58053C11.9347 6.40176 11.8028 6.23657 11.6531 6.08829C11.5831 5.99859 11.5016 5.9185 11.4106 5.85008C10.9523 5.46002 10.4079 5.18438 9.82219 5.04584C9.52702 4.97765 9.22498 4.9437 8.92204 4.94465H6.07927C5.99916 4.94465 5.98862 4.97627 5.98862 5.04584V6.92521C5.98862 7.00426 5.98862 7.02534 6.08981 7.02534H12.1991C12.1991 7.02534 12.2518 7.0148 12.2623 6.98318L12.236 6.98845ZM9.27093 9.25465H12.49C12.5585 9.25465 12.5901 9.25466 12.5954 9.16401C12.6219 8.83638 12.6219 8.50715 12.5954 8.17953C12.5954 8.11628 12.5638 8.08993 12.4953 8.08993H6.08981C6.0097 8.08993 5.98862 8.11628 5.98862 8.19006V9.12817C5.98862 9.24938 5.98862 9.24938 6.1151 9.24938L9.27093 9.25465Z" fill="white"/>
</svg>
