<svg width="38" height="24" viewBox="0 0 38 24" fill="none" xmlns="http://www.w3.org/2000/svg">
<path d="M35.8918 0.0540771C37.0513 0.0540771 37.9999 1.00272 37.9999 2.16218V21.1351C37.9999 22.2945 37.0513 23.2432 35.8918 23.2432H2.16224C1.00278 23.2432 0.0541382 22.2945 0.0541382 21.1351V2.16218C0.0541382 1.00272 1.00278 0.0540771 2.16224 0.0540771H35.8918Z" fill="#006FCF"/>
<path d="M8.45525 9.82296L9.27109 11.8004H7.64574L8.45525 9.82296ZM25.3991 9.90517H22.2612V10.7769H25.3485V12.0828H22.2675V13.0547H25.4054V13.8336L27.5947 11.4673L25.4054 9.0008L25.3991 9.90517ZM10.576 7.4387H14.7869L15.7219 9.47828L16.5883 7.43237H27.5188L28.6551 8.68669L29.8303 7.43237H34.8508L31.1416 11.4926L34.8128 15.5275H29.7175L28.5813 14.2732L27.3955 15.5275H9.57149L9.05079 14.2732H7.85972L7.33796 15.5275H3.21558L6.67918 7.43237H10.2946L10.576 7.4387ZM19.7072 8.57496H17.3472L15.7661 12.3021L14.0533 8.57496H11.7112V13.6449L9.53987 8.57496H7.43915L4.92841 14.3849H6.56745L7.08815 13.1306H9.82446L10.3452 14.3849H13.2122V10.2372L15.0578 14.3912H16.3121L18.1462 10.2498V14.3923H19.683L19.7083 8.57391L19.7072 8.57496ZM29.552 11.4926L32.2198 8.57496H30.2994L28.6118 10.3943L26.9802 8.57496H20.7676V14.3912H26.8916L28.5929 12.5593L30.2245 14.3912H32.2009L29.5531 11.4926H29.552Z" fill="white"/>
</svg>
