<svg width="25" height="36" viewBox="0 0 25 36" fill="none" xmlns="http://www.w3.org/2000/svg">
<g clip-path="url(#clip0_405_7094)">
<path d="M24.0384 0.043335H1.27623C0.910672 0.043335 0.613937 0.359106 0.613937 0.74812V34.716C0.613937 35.105 0.910672 35.4208 1.27623 35.4208H18.5842C18.7595 35.4208 18.9283 35.3461 19.0524 35.2142L24.5066 29.4101C24.6306 29.2781 24.7007 29.0984 24.7007 28.9119V0.74812C24.7007 0.359106 24.404 0.043335 24.0384 0.043335ZM19.2452 33.0162L19.2426 29.6125L22.4411 29.616L19.2452 33.0162ZM23.3761 28.2071L18.5803 28.2023H18.5797C18.4044 28.2023 18.2355 28.2769 18.1115 28.4089C17.9875 28.5415 17.9174 28.7205 17.9174 28.9077L17.9219 34.0112H1.93853V1.4529H23.3761V28.2071Z" fill="#999999"/>
<path d="M7.39927 25.4695C5.73379 25.4695 4.37933 26.9108 4.37933 28.6832C4.37933 30.4555 5.73444 31.8968 7.39927 31.8968C9.06475 31.8968 10.4192 30.4555 10.4192 28.6832C10.4199 26.9108 9.06475 25.4695 7.39927 25.4695ZM7.39927 30.488C6.46426 30.488 5.70327 29.6782 5.70327 28.6832C5.70327 27.6882 6.46362 26.8791 7.39927 26.8791C8.33492 26.8791 9.09526 27.6882 9.09526 28.6832C9.09526 29.6782 8.33428 30.488 7.39927 30.488Z" fill="#00A0FF"/>
<path d="M16.0342 28.0917H12.3916C12.026 28.0917 11.7293 28.4074 11.7293 28.7965C11.7293 29.1855 12.026 29.5012 12.3916 29.5012H16.0342C16.3998 29.5012 16.6965 29.1855 16.6965 28.7965C16.6965 28.4074 16.4004 28.0917 16.0342 28.0917Z" fill="#999999"/>
<path d="M7.1601 4.27136H5.2401C4.87454 4.27136 4.5778 4.58713 4.5778 4.97615C4.5778 5.36516 4.87454 5.68093 5.2401 5.68093H7.16075C7.52632 5.68093 7.82305 5.36516 7.82305 4.97615C7.82305 4.58713 7.52631 4.27136 7.1601 4.27136Z" fill="#999999"/>
<path d="M20.3394 4.27136H14.5781C14.2125 4.27136 13.9158 4.58713 13.9158 4.97615C13.9158 5.36516 14.2125 5.68093 14.5781 5.68093H20.3394C20.7049 5.68093 21.0017 5.36516 21.0017 4.97615C21.0017 4.58713 20.7049 4.27136 20.3394 4.27136Z" fill="#00A0FF"/>
<path d="M20.3394 7.302H10.5381C10.1726 7.302 9.87582 7.61777 9.87582 8.00679C9.87582 8.3958 10.1726 8.71157 10.5381 8.71157H20.3394C20.705 8.71157 21.0017 8.3958 21.0017 8.00679C21.0017 7.61777 20.705 7.302 20.3394 7.302Z" fill="#00A0FF"/>
<path d="M20.3726 12.869H4.94239C4.57683 12.869 4.2801 13.1848 4.2801 13.5738C4.2801 13.9628 4.57683 14.2786 4.94239 14.2786H20.3726C20.7381 14.2786 21.0349 13.9628 21.0349 13.5738C21.0349 13.1848 20.7381 12.869 20.3726 12.869Z" fill="#999999"/>
<path d="M20.3726 15.2654H4.94239C4.57683 15.2654 4.2801 15.5812 4.2801 15.9702C4.2801 16.3592 4.57683 16.6749 4.94239 16.6749H20.3726C20.7381 16.6749 21.0349 16.3592 21.0349 15.9702C21.0349 15.5812 20.7381 15.2654 20.3726 15.2654Z" fill="#999999"/>
<path d="M20.3726 17.873H4.94239C4.57683 17.873 4.2801 18.1888 4.2801 18.5778C4.2801 18.9668 4.57683 19.2826 4.94239 19.2826H20.3726C20.7381 19.2826 21.0349 18.9668 21.0349 18.5778C21.0349 18.1888 20.7381 17.873 20.3726 17.873Z" fill="#999999"/>
<path d="M20.3723 20.2693H20.008C19.6425 20.2693 19.3457 20.5851 19.3457 20.9741C19.3457 21.3631 19.6425 21.6789 20.008 21.6789H20.3723C20.7378 21.6789 21.0346 21.3631 21.0346 20.9741C21.0346 20.5844 20.7378 20.2693 20.3723 20.2693Z" fill="#999999"/>
<path d="M17.6903 20.2693H4.94239C4.57683 20.2693 4.2801 20.5851 4.2801 20.9741C4.2801 21.3631 4.57683 21.6789 4.94239 21.6789H17.6909C18.0565 21.6789 18.3532 21.3631 18.3532 20.9741C18.3526 20.5844 18.0558 20.2693 17.6903 20.2693Z" fill="#999999"/>
</g>
<defs>
<clipPath id="clip0_405_7094">
<rect width="24.0868" height="35.3774" fill="white" transform="translate(0.613937 0.043335)"/>
</clipPath>
</defs>
</svg>
