<svg width="37" height="36" viewBox="0 0 37 36" fill="none" xmlns="http://www.w3.org/2000/svg">
<g clip-path="url(#clip0_405_7090)">
<path d="M34.0457 25.8912C33.9081 25.512 33.4938 25.3185 33.1212 25.4583L25.6362 28.2635C25.2629 28.4033 25.0724 28.824 25.21 29.2024C25.3173 29.4977 25.5925 29.6805 25.8853 29.6805C25.9679 29.6805 26.0519 29.6661 26.1344 29.6353L33.6194 26.8301C33.9927 26.6903 34.1833 26.2696 34.0457 25.8912Z" fill="#009EFF"/>
<path d="M24.5031 29.4677C24.3655 29.0886 23.9513 28.895 23.5787 29.0348L23.2619 29.1538C22.8893 29.2935 22.6981 29.7143 22.8357 30.0927C22.9429 30.388 23.2181 30.5707 23.511 30.5707C23.5935 30.5707 23.6775 30.5564 23.7601 30.5256L24.0769 30.4066C24.4495 30.2661 24.6407 29.8461 24.5031 29.4677Z" fill="#009EFF"/>
<path d="M34.0457 22.9118C33.9081 22.5326 33.4938 22.3391 33.1212 22.4789L27.2063 24.6957C26.833 24.8355 26.6425 25.2562 26.7801 25.6346C26.8874 25.9299 27.1626 26.1127 27.4554 26.1127C27.538 26.1127 27.622 26.0983 27.7045 26.0675L33.6201 23.8507C33.9927 23.7109 34.1833 23.2909 34.0457 22.9118Z" fill="#009EFF"/>
<path d="M34.0457 19.9647C33.9081 19.5855 33.4938 19.392 33.1212 19.5318L27.2063 21.7486C26.833 21.8883 26.6425 22.309 26.7801 22.6875C26.8874 22.9828 27.1626 23.1655 27.4554 23.1655C27.538 23.1655 27.622 23.1512 27.7045 23.1204L33.6201 20.9036C33.9927 20.7638 34.1833 20.3431 34.0457 19.9647Z" fill="#009EFF"/>
<path d="M36.4987 6.58916L19.1534 0.0884885C18.9925 0.0282838 18.8161 0.0282838 18.6552 0.0884885L1.30994 6.58916V6.58988C1.25349 6.61138 1.19844 6.63934 1.14764 6.67517C0.954284 6.81135 0.83926 7.03568 0.83926 7.27507V28.189C0.83926 28.4951 1.02697 28.7689 1.30994 28.8749L18.6552 35.3756C18.7364 35.4057 18.8204 35.4208 18.9043 35.4208C18.989 35.4208 19.0737 35.405 19.1534 35.3749V35.3756L36.4987 28.8749C36.7817 28.7689 36.9694 28.4951 36.9694 28.189V7.27507C36.9694 6.96831 36.7817 6.69524 36.4987 6.58916ZM18.1846 33.6404L2.27882 27.6795V8.32363L5.51783 9.53776V18.395C5.51783 18.7011 5.70554 18.9749 5.98851 19.0809L13.7614 21.9937C13.8426 22.0238 13.9266 22.0388 14.0105 22.0388C14.1559 22.0388 14.2999 21.9944 14.4219 21.9077C14.6153 21.7708 14.7303 21.5472 14.7303 21.3078V12.9902L18.1853 14.2846L18.1846 33.6404ZM13.2908 12.4505V20.2585L6.95739 17.8847V10.0767L13.2908 12.4505ZM8.31651 9.02244L14.0105 6.88875L19.7046 9.02244L14.0105 11.1561L8.31651 9.02244ZM18.9043 12.9959L16.0817 11.9381L22.0326 9.70763C22.3155 9.60155 22.5032 9.32776 22.5032 9.02172C22.5032 8.71568 22.3155 8.44189 22.0326 8.33582L14.2596 5.42306C14.0987 5.36285 13.9223 5.36285 13.7614 5.42306L6.22914 8.24623L3.63794 7.27507L18.9043 1.55347L34.1707 7.27435L18.9043 12.9959ZM35.5299 27.6795L19.6241 33.6404V14.2846L35.5299 8.32363V27.6795Z" fill="#999999"/>
</g>
<defs>
<clipPath id="clip0_405_7090">
<rect width="36.1301" height="35.3774" fill="white" transform="translate(0.83926 0.043335)"/>
</clipPath>
</defs>
</svg>
