<svg xmlns="http://www.w3.org/2000/svg" xmlns:xlink="http://www.w3.org/1999/xlink">

  <symbol id="icon-phone" viewBox="0 0 20 20">
    <path d="M4.64762 12.9652C6.42973 15.0874 8.57501 16.7584 11.0235 17.9407C11.9558 18.3809 13.2025 18.903 14.5915 18.9925C14.6776 18.9963 14.76 19 14.8461 19C15.7783 19 16.5271 18.6792 17.1374 18.0191C17.1411 18.0153 17.1486 18.0079 17.1524 18.0004C17.3695 17.7393 17.6166 17.5044 17.8749 17.2545C18.0509 17.0866 18.2306 16.9113 18.4028 16.7323C19.2003 15.9043 19.2003 14.8525 18.3954 14.0506L16.1452 11.809C15.7634 11.4136 15.3066 11.2047 14.8274 11.2047C14.3482 11.2047 13.8877 11.4136 13.4945 11.8052L12.1542 13.1405C12.0307 13.0696 11.9034 13.0062 11.7836 12.9465C11.6338 12.8719 11.4953 12.8011 11.3717 12.7228C10.1512 11.9507 9.043 10.9436 7.98347 9.6494C7.44808 8.9743 7.08867 8.40738 6.83782 7.82926C7.18975 7.51223 7.51922 7.18027 7.83745 6.85578C7.94977 6.74016 8.06583 6.62453 8.18189 6.50891C8.58624 6.10609 8.80339 5.63987 8.80339 5.16618C8.80339 4.6925 8.58998 4.22627 8.18189 3.82346L7.0662 2.71198C6.93516 2.58143 6.81161 2.45462 6.68432 2.32408C6.43722 2.07045 6.17889 1.80937 5.9243 1.57439C5.53868 1.19768 5.08566 1 4.60644 1C4.13096 1 3.6742 1.19768 3.27359 1.57812L1.87336 2.97306C1.36419 3.48031 1.0759 4.09573 1.016 4.80812C0.944866 5.69954 1.1096 6.64691 1.53641 7.79196C2.1916 9.56361 3.18 11.2085 4.64762 12.9652Z" stroke="#323941" stroke-width="1.5" fill="#fff"/>
  </symbol>

  <symbol id="icon-insta" viewBox="0 0 18 18">
    <path d="M9.17715 18.0004C9.11755 18.0004 9.05795 18.0004 8.99794 18.0001C7.58702 18.0035 6.28336 17.9677 5.01553 17.8905C3.85318 17.8198 2.79218 17.4181 1.94705 16.729C1.13159 16.064 0.574722 15.1649 0.291962 14.057C0.045868 13.0924 0.0328217 12.1455 0.0203247 11.2296C0.011261 10.5725 0.00192261 9.79387 0 9.00203C0.00192261 8.20689 0.011261 7.42823 0.0203247 6.77111C0.0328217 5.8554 0.045868 4.90852 0.291962 3.94378C0.574722 2.83581 1.13159 1.93672 1.94705 1.27177C2.79218 0.582652 3.85318 0.180965 5.01567 0.11024C6.28349 0.0331984 7.58743 -0.00278182 9.00137 0.000651407C10.4127 -0.00236983 11.716 0.0331984 12.9838 0.11024C14.1461 0.180965 15.2071 0.582652 16.0523 1.27177C16.8679 1.93672 17.4246 2.83581 17.7074 3.94378C17.9534 4.90838 17.9665 5.8554 17.979 6.77111C17.9881 7.42823 17.9975 8.20689 17.9993 8.99873V9.00203C17.9975 9.79387 17.9881 10.5725 17.979 11.2296C17.9665 12.1454 17.9536 13.0922 17.7074 14.057C17.4246 15.1649 16.8679 16.064 16.0523 16.729C15.2071 17.4181 14.1461 17.8198 12.9838 17.8905C11.7697 17.9644 10.5224 18.0004 9.17715 18.0004V18.0004ZM8.99794 16.5939C10.3859 16.5971 11.6603 16.5621 12.8984 16.4869C13.7773 16.4335 14.5393 16.1482 15.1636 15.6391C15.7407 15.1685 16.1381 14.5192 16.3448 13.7093C16.5497 12.9063 16.5615 12.0441 16.5729 11.2104C16.5818 10.5577 16.5911 9.78453 16.5931 9.00038C16.5911 8.21609 16.5818 7.44307 16.5729 6.79034C16.5615 5.95662 16.5497 5.09446 16.3448 4.29136C16.1381 3.4814 15.7407 2.8321 15.1636 2.36148C14.5393 1.85253 13.7773 1.5673 12.8984 1.51388C11.6603 1.43849 10.3859 1.40374 9.00124 1.40676C7.61353 1.40347 6.33897 1.43849 5.10095 1.51388C4.22205 1.5673 3.46001 1.85253 2.83571 2.36148C2.25865 2.8321 1.86122 3.4814 1.65454 4.29136C1.44965 5.09446 1.43784 5.95648 1.42644 6.79034C1.41751 7.44361 1.40817 8.21719 1.40625 9.00203C1.40817 9.78343 1.41751 10.5571 1.42644 11.2104C1.43784 12.0441 1.44965 12.9063 1.65454 13.7093C1.86122 14.5192 2.25865 15.1685 2.83571 15.6391C3.46001 16.1481 4.22205 16.4333 5.10095 16.4867C6.33897 16.5621 7.6138 16.5973 8.99794 16.5939V16.5939ZM8.96443 13.3949C6.5414 13.3949 4.5699 11.4236 4.5699 9.00038C4.5699 6.57721 6.5414 4.60585 8.96443 4.60585C11.3876 4.60585 13.359 6.57721 13.359 9.00038C13.359 11.4236 11.3876 13.3949 8.96443 13.3949V13.3949ZM8.96443 6.0121C7.31676 6.0121 5.97615 7.3527 5.97615 9.00038C5.97615 10.6481 7.31676 11.9887 8.96443 11.9887C10.6122 11.9887 11.9527 10.6481 11.9527 9.00038C11.9527 7.3527 10.6122 6.0121 8.96443 6.0121V6.0121ZM13.8512 3.1996C13.2687 3.1996 12.7965 3.67173 12.7965 4.25428C12.7965 4.83683 13.2687 5.30897 13.8512 5.30897C14.4337 5.30897 14.9058 4.83683 14.9058 4.25428C14.9058 3.67173 14.4337 3.1996 13.8512 3.1996Z"/>
  </sympol>

  <symbol id="icon-card" viewBox="0 0 24 24">
    <g id="cart" transform="translate(-148 -530)">
      <path id="Контур_33" data-name="Контур 33" d="M204.4-454.307H191.809l-.394-1.486h7.923a4.873,4.873,0,0,0,4.523-3.079l3.2-7.9H188.5l-.385-1.45a5.264,5.264,0,0,0-5.06-3.937v1.515a3.766,3.766,0,0,1,3.619,2.816l3.988,15.038H204.4Zm.427-10.951-2.35,5.81a3.385,3.385,0,0,1-3.142,2.14h-8.325l-2.108-7.95Z" transform="translate(-35.058 1002.162)" fill="#fff"/>
      <ellipse id="Эллипс_4" data-name="Эллипс 4" cx="1.493" cy="1.516" rx="1.493" ry="1.516" transform="translate(166.36 550.968)" fill="#ea5e20"/>
      <ellipse id="Эллипс_5" data-name="Эллипс 5" cx="1.493" cy="1.516" rx="1.493" ry="1.516" transform="translate(156.185 550.968)" fill="#ea5e20"/>
    </g>
  </symbol>

  <symbol id="cart" viewBox="0 0 20 20" fill="none">
      <g clip-path="url(#clip0_405_6427)">
      <path d="M6.54542 19.1818C7.44916 19.1818 8.18178 18.4492 8.18178 17.5455C8.18178 16.6417 7.44916 15.9091 6.54542 15.9091C5.64168 15.9091 4.90906 16.6417 4.90906 17.5455C4.90906 18.4492 5.64168 19.1818 6.54542 19.1818Z" stroke="#323941" stroke-width="1.27585" stroke-linecap="round" stroke-linejoin="round"/>
      <path d="M16.3637 19.1818C17.2674 19.1818 18 18.4492 18 17.5455C18 16.6417 17.2674 15.9091 16.3637 15.9091C15.4599 15.9091 14.7273 16.6417 14.7273 17.5455C14.7273 18.4492 15.4599 19.1818 16.3637 19.1818Z" stroke="#323941" stroke-width="1.27585" stroke-linecap="round" stroke-linejoin="round"/>
      <path d="M4.63915 5.27273H18.8182L17.4437 12.1373C17.3689 12.514 17.164 12.8523 16.8648 13.0932C16.5656 13.334 16.1913 13.4619 15.8073 13.4546H7.15915C6.75962 13.4579 6.37265 13.315 6.07122 13.0528C5.76978 12.7905 5.57471 12.4271 5.52278 12.0309L4.27915 2.60546C4.22757 2.21211 4.03486 1.85089 3.73686 1.58901C3.43886 1.32713 3.05586 1.18242 2.65915 1.18182H0.818237" stroke="#323941" stroke-width="1.27585" stroke-linecap="round" stroke-linejoin="round"/>
      </g>
      <defs>
      <clipPath id="clip0_405_6427">
      <rect width="19.6364" height="19.6364" fill="white" transform="translate(0 0.363647)"/>
      </clipPath>
      </defs>
  </symbol>

  <symbol id="tab-1" viewBox="0 0 37 36" fill="none">
    <g clip-path="url(#clip0_405_7090)">
    <path d="M34.0457 25.8912C33.9081 25.512 33.4938 25.3185 33.1212 25.4583L25.6362 28.2635C25.2629 28.4033 25.0724 28.824 25.21 29.2024C25.3173 29.4977 25.5925 29.6805 25.8853 29.6805C25.9679 29.6805 26.0519 29.6661 26.1344 29.6353L33.6194 26.8301C33.9927 26.6903 34.1833 26.2696 34.0457 25.8912Z" fill="#009EFF"/>
    <path d="M24.5031 29.4677C24.3655 29.0886 23.9513 28.895 23.5787 29.0348L23.2619 29.1538C22.8893 29.2935 22.6981 29.7143 22.8357 30.0927C22.9429 30.388 23.2181 30.5707 23.511 30.5707C23.5935 30.5707 23.6775 30.5564 23.7601 30.5256L24.0769 30.4066C24.4495 30.2661 24.6407 29.8461 24.5031 29.4677Z" fill="#009EFF"/>
    <path d="M34.0457 22.9118C33.9081 22.5326 33.4938 22.3391 33.1212 22.4789L27.2063 24.6957C26.833 24.8355 26.6425 25.2562 26.7801 25.6346C26.8874 25.9299 27.1626 26.1127 27.4554 26.1127C27.538 26.1127 27.622 26.0983 27.7045 26.0675L33.6201 23.8507C33.9927 23.7109 34.1833 23.2909 34.0457 22.9118Z" fill="#009EFF"/>
    <path d="M34.0457 19.9647C33.9081 19.5855 33.4938 19.392 33.1212 19.5318L27.2063 21.7486C26.833 21.8883 26.6425 22.309 26.7801 22.6875C26.8874 22.9828 27.1626 23.1655 27.4554 23.1655C27.538 23.1655 27.622 23.1512 27.7045 23.1204L33.6201 20.9036C33.9927 20.7638 34.1833 20.3431 34.0457 19.9647Z" fill="#009EFF"/>
    <path d="M36.4987 6.58916L19.1534 0.0884885C18.9925 0.0282838 18.8161 0.0282838 18.6552 0.0884885L1.30994 6.58916V6.58988C1.25349 6.61138 1.19844 6.63934 1.14764 6.67517C0.954284 6.81135 0.83926 7.03568 0.83926 7.27507V28.189C0.83926 28.4951 1.02697 28.7689 1.30994 28.8749L18.6552 35.3756C18.7364 35.4057 18.8204 35.4208 18.9043 35.4208C18.989 35.4208 19.0737 35.405 19.1534 35.3749V35.3756L36.4987 28.8749C36.7817 28.7689 36.9694 28.4951 36.9694 28.189V7.27507C36.9694 6.96831 36.7817 6.69524 36.4987 6.58916ZM18.1846 33.6404L2.27882 27.6795V8.32363L5.51783 9.53776V18.395C5.51783 18.7011 5.70554 18.9749 5.98851 19.0809L13.7614 21.9937C13.8426 22.0238 13.9266 22.0388 14.0105 22.0388C14.1559 22.0388 14.2999 21.9944 14.4219 21.9077C14.6153 21.7708 14.7303 21.5472 14.7303 21.3078V12.9902L18.1853 14.2846L18.1846 33.6404ZM13.2908 12.4505V20.2585L6.95739 17.8847V10.0767L13.2908 12.4505ZM8.31651 9.02244L14.0105 6.88875L19.7046 9.02244L14.0105 11.1561L8.31651 9.02244ZM18.9043 12.9959L16.0817 11.9381L22.0326 9.70763C22.3155 9.60155 22.5032 9.32776 22.5032 9.02172C22.5032 8.71568 22.3155 8.44189 22.0326 8.33582L14.2596 5.42306C14.0987 5.36285 13.9223 5.36285 13.7614 5.42306L6.22914 8.24623L3.63794 7.27507L18.9043 1.55347L34.1707 7.27435L18.9043 12.9959ZM35.5299 27.6795L19.6241 33.6404V14.2846L35.5299 8.32363V27.6795Z" fill="#999999"/>
    </g>
    <defs>
    <clipPath id="clip0_405_7090">
    <rect width="36.1301" height="35.3774" fill="white" transform="translate(0.83926 0.043335)"/>
    </clipPath>
    </defs>
  </symbol>

  <symbol id='feat-1' viewBox="0 0 64 64" fill="none">
    <g clip-path="url(#clip0_392_18525)">
    <circle cx="32" cy="31.9999" r="14.6332" stroke="#999999" stroke-width="1.45356"/>
    <path d="M41.3213 9.63127C43.2762 10.4459 45.1158 11.5133 46.7931 12.8061" stroke="#009EFF" stroke-width="1.45356" stroke-linecap="round"/>
    <path d="M49.1356 14.8648C52.1435 17.8727 54.3067 21.6194 55.4076 25.7283C56.5086 29.8371 56.5086 34.1634 55.4076 38.2723" stroke="#009EFF" stroke-width="1.45356" stroke-linecap="round"/>
    <path d="M19.5529 52.7925C14.0384 49.4914 10.0612 44.1349 8.49606 37.9013" stroke="#009EFF" stroke-width="1.45356" stroke-linecap="round"/>
    <path d="M60.0729 31.9999C60.0729 47.5044 47.5041 60.0732 31.9996 60.0732C16.4952 60.0732 3.92643 47.5044 3.92643 31.9999C3.92643 16.4955 16.4952 3.92673 31.9996 3.92673C47.5041 3.92673 60.0729 16.4955 60.0729 31.9999Z" stroke="#999999" stroke-width="1.45356"/>
    </g>
    <defs>
    <clipPath id="clip0_392_18525">
    <rect width="64" height="64" fill="white"/>
    </clipPath>
    </defs>
  </symbol>

  <symbol id='feat-2' viewBox="0 0 65 64" fill="none">
    <path d="M44.467 40.8301C43.586 41.4895 42.867 42.3362 42.3633 43.3075C41.8597 44.2787 41.5844 45.3494 41.5579 46.4401" stroke="#009EFF" stroke-width="1.62712" stroke-linecap="round" stroke-linejoin="round"/>

  </symbol>

  <symbol id='feat-3' viewBox="0 0 63 49" fill="none">
    <path d="M31.4998 26.2397C28.714 26.2397 26.4598 28.4977 26.4598 31.2798C26.4598 34.0618 28.714 36.3198 31.4998 36.3198C34.2857 36.3198 36.5398 34.0618 36.5398 31.2798C36.5398 28.4964 34.2857 26.2397 31.4998 26.2397Z" stroke="#009EFF" stroke-width="1.52381" stroke-miterlimit="10" stroke-linecap="round" stroke-linejoin="round"/>
    <path d="M56.648 48.0857C58.3573 45.5304 59.6881 42.701 60.5598 39.6764C61.328 37.0111 61.7397 34.1943 61.7397 31.2798C61.7397 30.5739 61.7155 29.8737 61.668 29.18C61.5194 27.0087 61.1421 24.9008 60.5598 22.88C60.2498 21.8041 59.8818 20.7529 59.4592 19.73C59.2391 19.1971 59.0042 18.672 58.7551 18.155C58.3388 17.2913 57.8827 16.4505 57.3892 15.635C52.0931 6.88373 42.4844 1.03979 31.4997 1.03979C14.787 1.03979 1.25964 14.5672 1.25964 31.2798C1.25964 37.4992 3.13452 43.2763 6.34626 48.0781" stroke="#999999" stroke-width="1.52381" stroke-miterlimit="10" stroke-linecap="round" stroke-linejoin="round"/>
    <path d="M54.1799 45.542C54.3983 45.2196 54.6094 44.8921 54.813 44.5596C55.1816 43.9578 55.5257 43.3398 55.8441 42.707C56.2546 41.8908 56.6222 41.0499 56.944 40.187C57.1568 39.6165 57.3495 39.0364 57.5213 38.4476C57.6868 37.8803 57.833 37.3048 57.959 36.722C58.0713 36.2027 58.1676 35.6775 58.2473 35.147C58.347 34.4842 58.4208 33.8131 58.4679 33.1346C58.5084 32.5496 58.5291 31.9591 58.5291 31.3638M56.5812 21.6199C56.9421 22.4828 57.2565 23.3697 57.5213 24.2774C57.6868 24.8448 57.833 25.4205 57.959 26.0035C58.094 26.6281 58.2059 27.2613 58.2937 27.902" stroke="#009EFF" stroke-width="1.52381" stroke-miterlimit="10" stroke-linecap="round" stroke-linejoin="round"/>
    <path d="M50.7915 12.76C51.4234 13.4497 52.0196 14.1776 52.5762 14.9419C52.9242 15.4198 53.2567 15.9119 53.5727 16.4178C53.9113 16.9598 54.2311 17.5176 54.5308 18.0906" stroke="#009EFF" stroke-width="1.52381" stroke-miterlimit="10" stroke-linecap="round" stroke-linejoin="round"/>
    <path d="M28.5891 27.1574L49.1326 17.228L35.0945 34.8612" stroke="#009EFF" stroke-width="1.52381"/>
  </symbol>

  <symbol id='feat-4' viewBox="0 0 53 55" fill="none">
    <path d="M16.989 33.8137C19.2001 35.8106 20.9693 38.2477 22.183 40.9686C23.3967 43.6896 24.028 46.6342 24.0365 49.6136" stroke="#009EFF" stroke-width="1.71429"/>
    <path d="M47.6818 49.7279H2.45654L47.6818 1.62695" stroke="#999999" stroke-width="1.71429" stroke-linecap="round"/>
    <path d="M31.9967 22.279L47.6818 6.33252" stroke="#009EFF" stroke-width="1.71429" stroke-linecap="round"/>
    <path d="M25.9841 28.5531L29.9054 24.6318" stroke="#009EFF" stroke-width="1.71429" stroke-linecap="round"/>
  </symbol>

  <symbol id='feat-5' viewBox="0 0 50 54" fill="none">
    <path d="M22.6462 7.62769H14.4772C9.12763 7.62769 4.79095 11.9644 4.79095 17.3139V17.3139C4.79095 22.6635 9.12763 27.0002 14.4772 27.0002H35.3128C40.6624 27.0002 44.999 31.3369 44.999 36.6864V36.6864C44.999 42.036 40.6623 46.3727 35.3128 46.3727H25.3285M22.0501 46.3727H15.7913M26.5206 7.62769H33.3755" stroke="#999999" stroke-width="0.941176" stroke-linecap="round"/>
    <path d="M22.051 46.3727H15.7922M26.5216 7.62769H33.3765" stroke="#009EFF" stroke-width="0.941176" stroke-linecap="round"/>
    <circle r="6.23527" transform="matrix(-1 0 0 1 42.7648 6.88238)" fill="#F5F5F5" stroke="#009EFF" stroke-width="0.941176"/>
    <circle r="6.23527" transform="matrix(-1 0 0 1 7.00037 47.1172)" fill="#F5F5F5" stroke="#009EFF" stroke-width="0.941176"/>
  </symbol>

  <symbol id='feat-6' viewBox="0 0 57 57" fill="none">
    <g clip-path="url(#clip0_392_18591)">
    <path d="M43.5275 13.4725C46.4997 16.4446 48.5237 20.2314 49.3437 24.3539C50.1638 28.4764 49.7429 32.7494 48.1344 36.6327C46.5259 40.516 43.8019 43.8351 40.307 46.1703C36.8122 48.5055 32.7033 49.752 28.5001 49.752" stroke="#009EFF" stroke-width="0.831556" stroke-linecap="round"/>
    <path d="M28.4999 7.24797C32.2304 7.24797 35.8952 8.22995 39.1259 10.0952" stroke="#009EFF" stroke-width="0.831556" stroke-linecap="round"/>
    <circle cx="28.5" cy="28.5001" r="24.6556" stroke="#999999" stroke-width="0.831556"/>
    <circle cx="28.5002" cy="28.5003" r="2.22857" fill="#999999"/>
    <rect x="27.9431" y="10.6716" width="1.11428" height="17.8286" rx="0.557141" fill="#999999"/>
    <rect x="27.9431" y="28.9075" width="1.11429" height="13.9069" rx="0.557143" transform="rotate(-60 27.9431 28.9075)" fill="#999999"/>
    </g>
    <defs>
    <clipPath id="clip0_392_18591">
    <rect width="55.7143" height="55.7143" fill="white" transform="translate(0.643005 0.643066)"/>
    </clipPath>
    </defs>
  </symbol>

  <symbol id='feat-7' viewBox="0 0 58 58" fill="none">
    <path d="M24.5274 3.46264L24.5274 6.9354L19.8383 6.9354C17.2488 6.9354 15.1493 9.00863 15.1493 11.5657L15.1493 48.6084C15.1493 51.1655 17.2488 53.2388 19.8383 53.2388L38.5946 53.2388C41.1841 53.2388 43.2836 51.1655 43.2836 48.6084L43.2836 11.5657C43.2836 9.00863 41.1841 6.9354 38.5946 6.9354L33.9055 6.9354L33.9055 3.46264L24.5274 3.46264Z" stroke="#999999" stroke-width="1.43284" stroke-miterlimit="10" stroke-linecap="round" stroke-linejoin="round"/>
    <path d="M29.6992 41.8464C29.8439 42.1678 30.201 42.3362 30.541 42.2434C30.8811 42.1506 31.1032 41.8242 31.0646 41.4739L30.0159 31.9455L33.7611 31.9455C34.0042 31.9455 34.2307 31.8222 34.3627 31.618C34.4947 31.4139 34.5141 31.1567 34.4143 30.935L28.7333 18.3178C28.5886 17.9964 28.2316 17.828 27.8915 17.9208C27.5515 18.0136 27.3294 18.3399 27.368 18.6903L28.4167 28.2187L24.6715 28.2187C24.4284 28.2187 24.2018 28.342 24.0699 28.5462C23.9379 28.7503 23.9184 29.0075 24.0183 29.2292L29.6992 41.8464Z" stroke="#009EFF" stroke-width="1.43284" stroke-linejoin="round"/>
    <path d="M18.1792 12.1194L18.1792 29" stroke="#009EFF" stroke-width="1.43284" stroke-linecap="round"/>
    <path d="M18.1792 32.4626L18.1792 38.5223" stroke="#009EFF" stroke-width="1.43284" stroke-linecap="round"/>
  </symbol>

  <symbol id='feat-8' viewBox="0 0 34 54" fill="none">
    <path d="M32.7752 37.0614C32.7752 41.275 31.1013 45.3161 28.1218 48.2956C25.1423 51.2751 21.1012 52.9489 16.8876 52.9489C12.6739 52.9489 8.63286 51.2751 5.65336 48.2956C2.67387 45.3161 1 41.275 1 37.0614C1 28.2878 16.8876 1 16.8876 1C16.8876 1 32.7752 28.2878 32.7752 37.0614Z" stroke="#999999" stroke-width="1.41176" stroke-linecap="round" stroke-linejoin="round"/>
    <path d="M5.26341 43.5604C4.26712 42.1686 3.60531 40.5657 3.32947 38.8765" stroke="#009EFF" stroke-width="1.41176" stroke-linecap="round" stroke-linejoin="round"/>
    <path d="M7.89907 46.1778L7.74133 46.0635" stroke="#009EFF" stroke-width="1.41176" stroke-linecap="round" stroke-linejoin="round"/>
  </symbol>
</svg>